<?xml version="1.0" encoding="utf-8" standalone="no"?>
<!DOCTYPE svg PUBLIC "-//W3C//DTD SVG 1.1//EN"
  "http://www.w3.org/Graphics/SVG/1.1/DTD/svg11.dtd">
<svg height="648pt" version="1.1" viewBox="0 0 864 648" width="864pt" xmlns="http://www.w3.org/2000/svg" xmlns:xlink="http://www.w3.org/1999/xlink">
 <metadata>
  <rdf:RDF xmlns:cc="http://creativecommons.org/ns#" xmlns:dc="http://purl.org/dc/elements/1.1/" xmlns:rdf="http://www.w3.org/1999/02/22-rdf-syntax-ns#">
   <cc:Work>
    <dc:type rdf:resource="http://purl.org/dc/dcmitype/StillImage"/>
    <dc:date>2023-11-15T07:56:49.158787</dc:date>
    <dc:format>image/svg+xml</dc:format>
    <dc:creator>
     <cc:Agent>
      <dc:title>Matplotlib v3.4.3, https://matplotlib.org/</dc:title>
     </cc:Agent>
    </dc:creator>
   </cc:Work>
  </rdf:RDF>
 </metadata>
 <defs>
  <style type="text/css">*{stroke-linecap:butt;stroke-linejoin:round;}</style>
 </defs>
 <g id="figure_1">
  <g id="patch_1">
   <path d="M 0 648 
L 864 648 
L 864 0 
L 0 0 
z
" style="fill:none;"/>
  </g>
  <g id="axes_1">
   <g id="patch_2">
    <path d="M 58.181671 190.212459 
L 334.894204 190.212459 
L 334.894204 28.758614 
L 58.181671 28.758614 
z
" style="fill:none;"/>
   </g>
   <g id="patch_3">
    <path clip-path="url(#pa3cecdf38b)" d="M 75.476204 190.212459 
L 110.065271 190.212459 
L 110.065271 109.211962 
L 75.476204 109.211962 
z
" style="fill:#7fc97f;"/>
   </g>
   <g id="patch_4">
    <path clip-path="url(#pa3cecdf38b)" d="M 144.654337 190.212459 
L 179.243404 190.212459 
L 179.243404 190.174855 
L 144.654337 190.174855 
z
" style="fill:#7fc97f;"/>
   </g>
   <g id="patch_5">
    <path clip-path="url(#pa3cecdf38b)" d="M 213.832471 190.212459 
L 248.421537 190.212459 
L 248.421537 190.212459 
L 213.832471 190.212459 
z
" style="fill:#7fc97f;"/>
   </g>
   <g id="patch_6">
    <path clip-path="url(#pa3cecdf38b)" d="M 283.010604 190.212459 
L 317.599671 190.212459 
L 317.599671 190.212459 
L 283.010604 190.212459 
z
" style="fill:#7fc97f;"/>
   </g>
   <g id="patch_7">
    <path clip-path="url(#pa3cecdf38b)" d="M 75.476204 190.212459 
L 110.065271 190.212459 
L 110.065271 190.212459 
L 75.476204 190.212459 
z
" style="fill:#beaed4;"/>
   </g>
   <g id="patch_8">
    <path clip-path="url(#pa3cecdf38b)" d="M 144.654337 190.174855 
L 179.243404 190.174855 
L 179.243404 189.460366 
L 144.654337 189.460366 
z
" style="fill:#beaed4;"/>
   </g>
   <g id="patch_9">
    <path clip-path="url(#pa3cecdf38b)" d="M 213.832471 190.212459 
L 248.421537 190.212459 
L 248.421537 150.389095 
L 213.832471 150.389095 
z
" style="fill:#beaed4;"/>
   </g>
   <g id="patch_10">
    <path clip-path="url(#pa3cecdf38b)" d="M 283.010604 190.212459 
L 317.599671 190.212459 
L 317.599671 181.977033 
L 283.010604 181.977033 
z
" style="fill:#beaed4;"/>
   </g>
   <g id="patch_11">
    <path clip-path="url(#pa3cecdf38b)" d="M 75.476204 109.211962 
L 110.065271 109.211962 
L 110.065271 109.136753 
L 75.476204 109.136753 
z
" style="fill:#ffff99;"/>
   </g>
   <g id="patch_12">
    <path clip-path="url(#pa3cecdf38b)" d="M 144.654337 189.460366 
L 179.243404 189.460366 
L 179.243404 134.933569 
L 144.654337 134.933569 
z
" style="fill:#ffff99;"/>
   </g>
   <g id="patch_13">
    <path clip-path="url(#pa3cecdf38b)" d="M 213.832471 150.389095 
L 248.421537 150.389095 
L 248.421537 149.749815 
L 213.832471 149.749815 
z
" style="fill:#ffff99;"/>
   </g>
   <g id="patch_14">
    <path clip-path="url(#pa3cecdf38b)" d="M 283.010604 181.977033 
L 317.599671 181.977033 
L 317.599671 181.901823 
L 283.010604 181.901823 
z
" style="fill:#ffff99;"/>
   </g>
   <g id="patch_15">
    <path clip-path="url(#pa3cecdf38b)" d="M 75.476204 109.136753 
L 110.065271 109.136753 
L 110.065271 108.685497 
L 75.476204 108.685497 
z
" style="fill:#386cb0;"/>
   </g>
   <g id="patch_16">
    <path clip-path="url(#pa3cecdf38b)" d="M 144.654337 134.933569 
L 179.243404 134.933569 
L 179.243404 112.032314 
L 144.654337 112.032314 
z
" style="fill:#386cb0;"/>
   </g>
   <g id="patch_17">
    <path clip-path="url(#pa3cecdf38b)" d="M 213.832471 149.749815 
L 248.421537 149.749815 
L 248.421537 123.238511 
L 213.832471 123.238511 
z
" style="fill:#386cb0;"/>
   </g>
   <g id="patch_18">
    <path clip-path="url(#pa3cecdf38b)" d="M 283.010604 181.901823 
L 317.599671 181.901823 
L 317.599671 154.488006 
L 283.010604 154.488006 
z
" style="fill:#386cb0;"/>
   </g>
   <g id="patch_19">
    <path clip-path="url(#pa3cecdf38b)" d="M 75.476204 108.685497 
L 110.065271 108.685497 
L 110.065271 106.391611 
L 75.476204 106.391611 
z
" style="fill:#bf5b17;"/>
   </g>
   <g id="patch_20">
    <path clip-path="url(#pa3cecdf38b)" d="M 144.654337 112.032314 
L 179.243404 112.032314 
L 179.243404 56.226958 
L 144.654337 56.226958 
z
" style="fill:#bf5b17;"/>
   </g>
   <g id="patch_21">
    <path clip-path="url(#pa3cecdf38b)" d="M 213.832471 123.238511 
L 248.421537 123.238511 
L 248.421537 77.774444 
L 213.832471 77.774444 
z
" style="fill:#bf5b17;"/>
   </g>
   <g id="patch_22">
    <path clip-path="url(#pa3cecdf38b)" d="M 283.010604 154.488006 
L 317.599671 154.488006 
L 317.599671 149.86263 
L 283.010604 149.86263 
z
" style="fill:#bf5b17;"/>
   </g>
   <g id="patch_23">
    <path clip-path="url(#pa3cecdf38b)" d="M 75.476204 190.212459 
L 110.065271 190.212459 
L 110.065271 190.212459 
L 75.476204 190.212459 
z
" style="fill:#666666;"/>
   </g>
   <g id="patch_24">
    <path clip-path="url(#pa3cecdf38b)" d="M 144.654337 56.226958 
L 179.243404 56.226958 
L 179.243404 54.986003 
L 144.654337 54.986003 
z
" style="fill:#666666;"/>
   </g>
   <g id="patch_25">
    <path clip-path="url(#pa3cecdf38b)" d="M 213.832471 77.774444 
L 248.421537 77.774444 
L 248.421537 36.446892 
L 213.832471 36.446892 
z
" style="fill:#666666;"/>
   </g>
   <g id="patch_26">
    <path clip-path="url(#pa3cecdf38b)" d="M 283.010604 149.86263 
L 317.599671 149.86263 
L 317.599671 58.746472 
L 283.010604 58.746472 
z
" style="fill:#666666;"/>
   </g>
   <g id="matplotlib.axis_1">
    <g id="xtick_1">
     <g id="line2d_1">
      <defs>
       <path d="M 0 0 
L 0 3.5 
" id="m2459ececbe" style="stroke:#000000;stroke-width:0.8;"/>
      </defs>
      <g>
       <use style="stroke:#000000;stroke-width:0.8;" x="92.770737" xlink:href="#m2459ececbe" y="190.212459"/>
      </g>
     </g>
     <g id="text_1">
      <!-- d1-4 -->
      <g transform="translate(74.103118 220.267234)rotate(-45)scale(0.12 -0.12)">
       <defs>
        <path d="M 2575 0 
L 2575 419 
Q 2259 -75 1647 -75 
Q 1250 -75 917 144 
Q 584 363 401 755 
Q 219 1147 219 1656 
Q 219 2153 384 2558 
Q 550 2963 881 3178 
Q 1213 3394 1622 3394 
Q 1922 3394 2156 3267 
Q 2391 3141 2538 2938 
L 2538 4581 
L 3097 4581 
L 3097 0 
L 2575 0 
z
M 797 1656 
Q 797 1019 1065 703 
Q 1334 388 1700 388 
Q 2069 388 2326 689 
Q 2584 991 2584 1609 
Q 2584 2291 2321 2609 
Q 2059 2928 1675 2928 
Q 1300 2928 1048 2622 
Q 797 2316 797 1656 
z
" id="ArialMT-64" transform="scale(0.015625)"/>
        <path d="M 2384 0 
L 1822 0 
L 1822 3584 
Q 1619 3391 1289 3197 
Q 959 3003 697 2906 
L 697 3450 
Q 1169 3672 1522 3987 
Q 1875 4303 2022 4600 
L 2384 4600 
L 2384 0 
z
" id="ArialMT-31" transform="scale(0.015625)"/>
        <path d="M 203 1375 
L 203 1941 
L 1931 1941 
L 1931 1375 
L 203 1375 
z
" id="ArialMT-2d" transform="scale(0.015625)"/>
        <path d="M 2069 0 
L 2069 1097 
L 81 1097 
L 81 1613 
L 2172 4581 
L 2631 4581 
L 2631 1613 
L 3250 1613 
L 3250 1097 
L 2631 1097 
L 2631 0 
L 2069 0 
z
M 2069 1613 
L 2069 3678 
L 634 1613 
L 2069 1613 
z
" id="ArialMT-34" transform="scale(0.015625)"/>
       </defs>
       <use xlink:href="#ArialMT-64"/>
       <use x="55.615234" xlink:href="#ArialMT-31"/>
       <use x="111.230469" xlink:href="#ArialMT-2d"/>
       <use x="144.53125" xlink:href="#ArialMT-34"/>
      </g>
     </g>
    </g>
    <g id="xtick_2">
     <g id="line2d_2">
      <g>
       <use style="stroke:#000000;stroke-width:0.8;" x="161.948871" xlink:href="#m2459ececbe" y="190.212459"/>
      </g>
     </g>
     <g id="text_2">
      <!-- d7 -->
      <g transform="translate(150.825197 212.723288)rotate(-45)scale(0.12 -0.12)">
       <defs>
        <path d="M 303 3981 
L 303 4522 
L 3269 4522 
L 3269 4084 
Q 2831 3619 2401 2847 
Q 1972 2075 1738 1259 
Q 1569 684 1522 0 
L 944 0 
Q 953 541 1156 1306 
Q 1359 2072 1739 2783 
Q 2119 3494 2547 3981 
L 303 3981 
z
" id="ArialMT-37" transform="scale(0.015625)"/>
       </defs>
       <use xlink:href="#ArialMT-64"/>
       <use x="55.615234" xlink:href="#ArialMT-37"/>
      </g>
     </g>
    </g>
    <g id="xtick_3">
     <g id="line2d_3">
      <g>
       <use style="stroke:#000000;stroke-width:0.8;" x="231.127004" xlink:href="#m2459ececbe" y="190.212459"/>
      </g>
     </g>
     <g id="text_3">
      <!-- d14 -->
      <g transform="translate(215.284719 217.4419)rotate(-45)scale(0.12 -0.12)">
       <use xlink:href="#ArialMT-64"/>
       <use x="55.615234" xlink:href="#ArialMT-31"/>
       <use x="111.230469" xlink:href="#ArialMT-34"/>
      </g>
     </g>
    </g>
    <g id="xtick_4">
     <g id="line2d_4">
      <g>
       <use style="stroke:#000000;stroke-width:0.8;" x="300.305137" xlink:href="#m2459ececbe" y="190.212459"/>
      </g>
     </g>
     <g id="text_4">
      <!-- d21 -->
      <g transform="translate(284.462852 217.4419)rotate(-45)scale(0.12 -0.12)">
       <defs>
        <path d="M 3222 541 
L 3222 0 
L 194 0 
Q 188 203 259 391 
Q 375 700 629 1000 
Q 884 1300 1366 1694 
Q 2113 2306 2375 2664 
Q 2638 3022 2638 3341 
Q 2638 3675 2398 3904 
Q 2159 4134 1775 4134 
Q 1369 4134 1125 3890 
Q 881 3647 878 3216 
L 300 3275 
Q 359 3922 746 4261 
Q 1134 4600 1788 4600 
Q 2447 4600 2831 4234 
Q 3216 3869 3216 3328 
Q 3216 3053 3103 2787 
Q 2991 2522 2730 2228 
Q 2469 1934 1863 1422 
Q 1356 997 1212 845 
Q 1069 694 975 541 
L 3222 541 
z
" id="ArialMT-32" transform="scale(0.015625)"/>
       </defs>
       <use xlink:href="#ArialMT-64"/>
       <use x="55.615234" xlink:href="#ArialMT-32"/>
       <use x="111.230469" xlink:href="#ArialMT-31"/>
      </g>
     </g>
    </g>
   </g>
   <g id="matplotlib.axis_2">
    <g id="ytick_1">
     <g id="line2d_5">
      <defs>
       <path d="M 0 0 
L -3.5 0 
" id="m705b5f045e" style="stroke:#000000;stroke-width:0.8;"/>
      </defs>
      <g>
       <use style="stroke:#000000;stroke-width:0.8;" x="58.181671" xlink:href="#m705b5f045e" y="190.212459"/>
      </g>
     </g>
     <g id="text_5">
      <!-- 0 -->
      <g transform="translate(45.042396 194.163572)scale(0.1104 -0.1104)">
       <defs>
        <path d="M 266 2259 
Q 266 3072 433 3567 
Q 600 4063 929 4331 
Q 1259 4600 1759 4600 
Q 2128 4600 2406 4451 
Q 2684 4303 2865 4023 
Q 3047 3744 3150 3342 
Q 3253 2941 3253 2259 
Q 3253 1453 3087 958 
Q 2922 463 2592 192 
Q 2263 -78 1759 -78 
Q 1097 -78 719 397 
Q 266 969 266 2259 
z
M 844 2259 
Q 844 1131 1108 757 
Q 1372 384 1759 384 
Q 2147 384 2411 759 
Q 2675 1134 2675 2259 
Q 2675 3391 2411 3762 
Q 2147 4134 1753 4134 
Q 1366 4134 1134 3806 
Q 844 3388 844 2259 
z
" id="ArialMT-30" transform="scale(0.015625)"/>
       </defs>
       <use xlink:href="#ArialMT-30"/>
      </g>
     </g>
    </g>
    <g id="ytick_2">
     <g id="line2d_6">
      <g>
       <use style="stroke:#000000;stroke-width:0.8;" x="58.181671" xlink:href="#m705b5f045e" y="152.607772"/>
      </g>
     </g>
     <g id="text_6">
      <!-- 1000 -->
      <g transform="translate(26.624571 156.558884)scale(0.1104 -0.1104)">
       <use xlink:href="#ArialMT-31"/>
       <use x="55.615234" xlink:href="#ArialMT-30"/>
       <use x="111.230469" xlink:href="#ArialMT-30"/>
       <use x="166.845703" xlink:href="#ArialMT-30"/>
      </g>
     </g>
    </g>
    <g id="ytick_3">
     <g id="line2d_7">
      <g>
       <use style="stroke:#000000;stroke-width:0.8;" x="58.181671" xlink:href="#m705b5f045e" y="115.003084"/>
      </g>
     </g>
     <g id="text_7">
      <!-- 2000 -->
      <g transform="translate(26.624571 118.954197)scale(0.1104 -0.1104)">
       <use xlink:href="#ArialMT-32"/>
       <use x="55.615234" xlink:href="#ArialMT-30"/>
       <use x="111.230469" xlink:href="#ArialMT-30"/>
       <use x="166.845703" xlink:href="#ArialMT-30"/>
      </g>
     </g>
    </g>
    <g id="ytick_4">
     <g id="line2d_8">
      <g>
       <use style="stroke:#000000;stroke-width:0.8;" x="58.181671" xlink:href="#m705b5f045e" y="77.398397"/>
      </g>
     </g>
     <g id="text_8">
      <!-- 3000 -->
      <g transform="translate(26.624571 81.349509)scale(0.1104 -0.1104)">
       <defs>
        <path d="M 269 1209 
L 831 1284 
Q 928 806 1161 595 
Q 1394 384 1728 384 
Q 2125 384 2398 659 
Q 2672 934 2672 1341 
Q 2672 1728 2419 1979 
Q 2166 2231 1775 2231 
Q 1616 2231 1378 2169 
L 1441 2663 
Q 1497 2656 1531 2656 
Q 1891 2656 2178 2843 
Q 2466 3031 2466 3422 
Q 2466 3731 2256 3934 
Q 2047 4138 1716 4138 
Q 1388 4138 1169 3931 
Q 950 3725 888 3313 
L 325 3413 
Q 428 3978 793 4289 
Q 1159 4600 1703 4600 
Q 2078 4600 2393 4439 
Q 2709 4278 2876 4000 
Q 3044 3722 3044 3409 
Q 3044 3113 2884 2869 
Q 2725 2625 2413 2481 
Q 2819 2388 3044 2092 
Q 3269 1797 3269 1353 
Q 3269 753 2831 336 
Q 2394 -81 1725 -81 
Q 1122 -81 723 278 
Q 325 638 269 1209 
z
" id="ArialMT-33" transform="scale(0.015625)"/>
       </defs>
       <use xlink:href="#ArialMT-33"/>
       <use x="55.615234" xlink:href="#ArialMT-30"/>
       <use x="111.230469" xlink:href="#ArialMT-30"/>
       <use x="166.845703" xlink:href="#ArialMT-30"/>
      </g>
     </g>
    </g>
    <g id="ytick_5">
     <g id="line2d_9">
      <g>
       <use style="stroke:#000000;stroke-width:0.8;" x="58.181671" xlink:href="#m705b5f045e" y="39.793709"/>
      </g>
     </g>
     <g id="text_9">
      <!-- 4000 -->
      <g transform="translate(26.624571 43.744822)scale(0.1104 -0.1104)">
       <use xlink:href="#ArialMT-34"/>
       <use x="55.615234" xlink:href="#ArialMT-30"/>
       <use x="111.230469" xlink:href="#ArialMT-30"/>
       <use x="166.845703" xlink:href="#ArialMT-30"/>
      </g>
     </g>
    </g>
    <g id="text_10">
     <!-- number of cells -->
     <g transform="translate(20.239571 150.167411)rotate(-90)scale(0.12 -0.12)">
      <defs>
       <path d="M 422 0 
L 422 3319 
L 928 3319 
L 928 2847 
Q 1294 3394 1984 3394 
Q 2284 3394 2536 3286 
Q 2788 3178 2913 3003 
Q 3038 2828 3088 2588 
Q 3119 2431 3119 2041 
L 3119 0 
L 2556 0 
L 2556 2019 
Q 2556 2363 2490 2533 
Q 2425 2703 2258 2804 
Q 2091 2906 1866 2906 
Q 1506 2906 1245 2678 
Q 984 2450 984 1813 
L 984 0 
L 422 0 
z
" id="ArialMT-6e" transform="scale(0.015625)"/>
       <path d="M 2597 0 
L 2597 488 
Q 2209 -75 1544 -75 
Q 1250 -75 995 37 
Q 741 150 617 320 
Q 494 491 444 738 
Q 409 903 409 1263 
L 409 3319 
L 972 3319 
L 972 1478 
Q 972 1038 1006 884 
Q 1059 663 1231 536 
Q 1403 409 1656 409 
Q 1909 409 2131 539 
Q 2353 669 2445 892 
Q 2538 1116 2538 1541 
L 2538 3319 
L 3100 3319 
L 3100 0 
L 2597 0 
z
" id="ArialMT-75" transform="scale(0.015625)"/>
       <path d="M 422 0 
L 422 3319 
L 925 3319 
L 925 2853 
Q 1081 3097 1340 3245 
Q 1600 3394 1931 3394 
Q 2300 3394 2536 3241 
Q 2772 3088 2869 2813 
Q 3263 3394 3894 3394 
Q 4388 3394 4653 3120 
Q 4919 2847 4919 2278 
L 4919 0 
L 4359 0 
L 4359 2091 
Q 4359 2428 4304 2576 
Q 4250 2725 4106 2815 
Q 3963 2906 3769 2906 
Q 3419 2906 3187 2673 
Q 2956 2441 2956 1928 
L 2956 0 
L 2394 0 
L 2394 2156 
Q 2394 2531 2256 2718 
Q 2119 2906 1806 2906 
Q 1569 2906 1367 2781 
Q 1166 2656 1075 2415 
Q 984 2175 984 1722 
L 984 0 
L 422 0 
z
" id="ArialMT-6d" transform="scale(0.015625)"/>
       <path d="M 941 0 
L 419 0 
L 419 4581 
L 981 4581 
L 981 2947 
Q 1338 3394 1891 3394 
Q 2197 3394 2470 3270 
Q 2744 3147 2920 2923 
Q 3097 2700 3197 2384 
Q 3297 2069 3297 1709 
Q 3297 856 2875 390 
Q 2453 -75 1863 -75 
Q 1275 -75 941 416 
L 941 0 
z
M 934 1684 
Q 934 1088 1097 822 
Q 1363 388 1816 388 
Q 2184 388 2453 708 
Q 2722 1028 2722 1663 
Q 2722 2313 2464 2622 
Q 2206 2931 1841 2931 
Q 1472 2931 1203 2611 
Q 934 2291 934 1684 
z
" id="ArialMT-62" transform="scale(0.015625)"/>
       <path d="M 2694 1069 
L 3275 997 
Q 3138 488 2766 206 
Q 2394 -75 1816 -75 
Q 1088 -75 661 373 
Q 234 822 234 1631 
Q 234 2469 665 2931 
Q 1097 3394 1784 3394 
Q 2450 3394 2872 2941 
Q 3294 2488 3294 1666 
Q 3294 1616 3291 1516 
L 816 1516 
Q 847 969 1125 678 
Q 1403 388 1819 388 
Q 2128 388 2347 550 
Q 2566 713 2694 1069 
z
M 847 1978 
L 2700 1978 
Q 2663 2397 2488 2606 
Q 2219 2931 1791 2931 
Q 1403 2931 1139 2672 
Q 875 2413 847 1978 
z
" id="ArialMT-65" transform="scale(0.015625)"/>
       <path d="M 416 0 
L 416 3319 
L 922 3319 
L 922 2816 
Q 1116 3169 1280 3281 
Q 1444 3394 1641 3394 
Q 1925 3394 2219 3213 
L 2025 2691 
Q 1819 2813 1613 2813 
Q 1428 2813 1281 2702 
Q 1134 2591 1072 2394 
Q 978 2094 978 1738 
L 978 0 
L 416 0 
z
" id="ArialMT-72" transform="scale(0.015625)"/>
       <path id="ArialMT-20" transform="scale(0.015625)"/>
       <path d="M 213 1659 
Q 213 2581 725 3025 
Q 1153 3394 1769 3394 
Q 2453 3394 2887 2945 
Q 3322 2497 3322 1706 
Q 3322 1066 3130 698 
Q 2938 331 2570 128 
Q 2203 -75 1769 -75 
Q 1072 -75 642 372 
Q 213 819 213 1659 
z
M 791 1659 
Q 791 1022 1069 705 
Q 1347 388 1769 388 
Q 2188 388 2466 706 
Q 2744 1025 2744 1678 
Q 2744 2294 2464 2611 
Q 2184 2928 1769 2928 
Q 1347 2928 1069 2612 
Q 791 2297 791 1659 
z
" id="ArialMT-6f" transform="scale(0.015625)"/>
       <path d="M 556 0 
L 556 2881 
L 59 2881 
L 59 3319 
L 556 3319 
L 556 3672 
Q 556 4006 616 4169 
Q 697 4388 901 4523 
Q 1106 4659 1475 4659 
Q 1713 4659 2000 4603 
L 1916 4113 
Q 1741 4144 1584 4144 
Q 1328 4144 1222 4034 
Q 1116 3925 1116 3625 
L 1116 3319 
L 1763 3319 
L 1763 2881 
L 1116 2881 
L 1116 0 
L 556 0 
z
" id="ArialMT-66" transform="scale(0.015625)"/>
       <path d="M 2588 1216 
L 3141 1144 
Q 3050 572 2676 248 
Q 2303 -75 1759 -75 
Q 1078 -75 664 370 
Q 250 816 250 1647 
Q 250 2184 428 2587 
Q 606 2991 970 3192 
Q 1334 3394 1763 3394 
Q 2303 3394 2647 3120 
Q 2991 2847 3088 2344 
L 2541 2259 
Q 2463 2594 2264 2762 
Q 2066 2931 1784 2931 
Q 1359 2931 1093 2626 
Q 828 2322 828 1663 
Q 828 994 1084 691 
Q 1341 388 1753 388 
Q 2084 388 2306 591 
Q 2528 794 2588 1216 
z
" id="ArialMT-63" transform="scale(0.015625)"/>
       <path d="M 409 0 
L 409 4581 
L 972 4581 
L 972 0 
L 409 0 
z
" id="ArialMT-6c" transform="scale(0.015625)"/>
       <path d="M 197 991 
L 753 1078 
Q 800 744 1014 566 
Q 1228 388 1613 388 
Q 2000 388 2187 545 
Q 2375 703 2375 916 
Q 2375 1106 2209 1216 
Q 2094 1291 1634 1406 
Q 1016 1563 777 1677 
Q 538 1791 414 1992 
Q 291 2194 291 2438 
Q 291 2659 392 2848 
Q 494 3038 669 3163 
Q 800 3259 1026 3326 
Q 1253 3394 1513 3394 
Q 1903 3394 2198 3281 
Q 2494 3169 2634 2976 
Q 2775 2784 2828 2463 
L 2278 2388 
Q 2241 2644 2061 2787 
Q 1881 2931 1553 2931 
Q 1166 2931 1000 2803 
Q 834 2675 834 2503 
Q 834 2394 903 2306 
Q 972 2216 1119 2156 
Q 1203 2125 1616 2013 
Q 2213 1853 2448 1751 
Q 2684 1650 2818 1456 
Q 2953 1263 2953 975 
Q 2953 694 2789 445 
Q 2625 197 2315 61 
Q 2006 -75 1616 -75 
Q 969 -75 630 194 
Q 291 463 197 991 
z
" id="ArialMT-73" transform="scale(0.015625)"/>
      </defs>
      <use xlink:href="#ArialMT-6e"/>
      <use x="55.615234" xlink:href="#ArialMT-75"/>
      <use x="111.230469" xlink:href="#ArialMT-6d"/>
      <use x="194.53125" xlink:href="#ArialMT-62"/>
      <use x="250.146484" xlink:href="#ArialMT-65"/>
      <use x="305.761719" xlink:href="#ArialMT-72"/>
      <use x="339.0625" xlink:href="#ArialMT-20"/>
      <use x="366.845703" xlink:href="#ArialMT-6f"/>
      <use x="422.460938" xlink:href="#ArialMT-66"/>
      <use x="450.244141" xlink:href="#ArialMT-20"/>
      <use x="478.027344" xlink:href="#ArialMT-63"/>
      <use x="528.027344" xlink:href="#ArialMT-65"/>
      <use x="583.642578" xlink:href="#ArialMT-6c"/>
      <use x="605.859375" xlink:href="#ArialMT-6c"/>
      <use x="628.076172" xlink:href="#ArialMT-73"/>
     </g>
    </g>
   </g>
   <g id="patch_27">
    <path d="M 58.181671 190.212459 
L 58.181671 28.758614 
" style="fill:none;stroke:#000000;stroke-linecap:square;stroke-linejoin:miter;stroke-width:0.8;"/>
   </g>
   <g id="patch_28">
    <path d="M 58.181671 190.212459 
L 334.894204 190.212459 
" style="fill:none;stroke:#000000;stroke-linecap:square;stroke-linejoin:miter;stroke-width:0.8;"/>
   </g>
   <g id="text_11">
    <!-- A -->
    <g transform="translate(2.839164 9.455729)scale(0.16 -0.16)">
     <defs>
      <path d="M 4597 0 
L 3591 0 
L 3191 1041 
L 1359 1041 
L 981 0 
L 0 0 
L 1784 4581 
L 2763 4581 
L 4597 0 
z
M 2894 1813 
L 2263 3513 
L 1644 1813 
L 2894 1813 
z
" id="Arial-BoldMT-41" transform="scale(0.015625)"/>
     </defs>
     <use xlink:href="#Arial-BoldMT-41"/>
    </g>
   </g>
   <g id="legend_1">
    <g id="patch_29">
     <path d="M 49.3495 258.037988 
L 55.3495 258.037988 
L 55.3495 249.637988 
L 49.3495 249.637988 
z
" style="fill:#7fc97f;"/>
    </g>
    <g id="text_12">
     <!-- early -->
     <g transform="translate(60.1495 258.037988)scale(0.12 -0.12)">
      <defs>
       <path d="M 2588 409 
Q 2275 144 1986 34 
Q 1697 -75 1366 -75 
Q 819 -75 525 192 
Q 231 459 231 875 
Q 231 1119 342 1320 
Q 453 1522 633 1644 
Q 813 1766 1038 1828 
Q 1203 1872 1538 1913 
Q 2219 1994 2541 2106 
Q 2544 2222 2544 2253 
Q 2544 2597 2384 2738 
Q 2169 2928 1744 2928 
Q 1347 2928 1158 2789 
Q 969 2650 878 2297 
L 328 2372 
Q 403 2725 575 2942 
Q 747 3159 1072 3276 
Q 1397 3394 1825 3394 
Q 2250 3394 2515 3294 
Q 2781 3194 2906 3042 
Q 3031 2891 3081 2659 
Q 3109 2516 3109 2141 
L 3109 1391 
Q 3109 606 3145 398 
Q 3181 191 3288 0 
L 2700 0 
Q 2613 175 2588 409 
z
M 2541 1666 
Q 2234 1541 1622 1453 
Q 1275 1403 1131 1340 
Q 988 1278 909 1158 
Q 831 1038 831 891 
Q 831 666 1001 516 
Q 1172 366 1500 366 
Q 1825 366 2078 508 
Q 2331 650 2450 897 
Q 2541 1088 2541 1459 
L 2541 1666 
z
" id="ArialMT-61" transform="scale(0.015625)"/>
       <path d="M 397 -1278 
L 334 -750 
Q 519 -800 656 -800 
Q 844 -800 956 -737 
Q 1069 -675 1141 -563 
Q 1194 -478 1313 -144 
Q 1328 -97 1363 -6 
L 103 3319 
L 709 3319 
L 1400 1397 
Q 1534 1031 1641 628 
Q 1738 1016 1872 1384 
L 2581 3319 
L 3144 3319 
L 1881 -56 
Q 1678 -603 1566 -809 
Q 1416 -1088 1222 -1217 
Q 1028 -1347 759 -1347 
Q 597 -1347 397 -1278 
z
" id="ArialMT-79" transform="scale(0.015625)"/>
      </defs>
      <use xlink:href="#ArialMT-65"/>
      <use x="55.615234" xlink:href="#ArialMT-61"/>
      <use x="111.230469" xlink:href="#ArialMT-72"/>
      <use x="144.53125" xlink:href="#ArialMT-6c"/>
      <use x="166.748047" xlink:href="#ArialMT-79"/>
     </g>
    </g>
    <g id="patch_30">
     <path d="M 49.3495 275.152988 
L 55.3495 275.152988 
L 55.3495 266.752988 
L 49.3495 266.752988 
z
" style="fill:#beaed4;"/>
    </g>
    <g id="text_13">
     <!-- effector-like exhausted -->
     <g transform="translate(60.1495 275.152988)scale(0.12 -0.12)">
      <defs>
       <path d="M 1650 503 
L 1731 6 
Q 1494 -44 1306 -44 
Q 1000 -44 831 53 
Q 663 150 594 308 
Q 525 466 525 972 
L 525 2881 
L 113 2881 
L 113 3319 
L 525 3319 
L 525 4141 
L 1084 4478 
L 1084 3319 
L 1650 3319 
L 1650 2881 
L 1084 2881 
L 1084 941 
Q 1084 700 1114 631 
Q 1144 563 1211 522 
Q 1278 481 1403 481 
Q 1497 481 1650 503 
z
" id="ArialMT-74" transform="scale(0.015625)"/>
       <path d="M 425 3934 
L 425 4581 
L 988 4581 
L 988 3934 
L 425 3934 
z
M 425 0 
L 425 3319 
L 988 3319 
L 988 0 
L 425 0 
z
" id="ArialMT-69" transform="scale(0.015625)"/>
       <path d="M 425 0 
L 425 4581 
L 988 4581 
L 988 1969 
L 2319 3319 
L 3047 3319 
L 1778 2088 
L 3175 0 
L 2481 0 
L 1384 1697 
L 988 1316 
L 988 0 
L 425 0 
z
" id="ArialMT-6b" transform="scale(0.015625)"/>
       <path d="M 47 0 
L 1259 1725 
L 138 3319 
L 841 3319 
L 1350 2541 
Q 1494 2319 1581 2169 
Q 1719 2375 1834 2534 
L 2394 3319 
L 3066 3319 
L 1919 1756 
L 3153 0 
L 2463 0 
L 1781 1031 
L 1600 1309 
L 728 0 
L 47 0 
z
" id="ArialMT-78" transform="scale(0.015625)"/>
       <path d="M 422 0 
L 422 4581 
L 984 4581 
L 984 2938 
Q 1378 3394 1978 3394 
Q 2347 3394 2619 3248 
Q 2891 3103 3008 2847 
Q 3125 2591 3125 2103 
L 3125 0 
L 2563 0 
L 2563 2103 
Q 2563 2525 2380 2717 
Q 2197 2909 1863 2909 
Q 1613 2909 1392 2779 
Q 1172 2650 1078 2428 
Q 984 2206 984 1816 
L 984 0 
L 422 0 
z
" id="ArialMT-68" transform="scale(0.015625)"/>
      </defs>
      <use xlink:href="#ArialMT-65"/>
      <use x="55.615234" xlink:href="#ArialMT-66"/>
      <use x="81.648438" xlink:href="#ArialMT-66"/>
      <use x="109.431641" xlink:href="#ArialMT-65"/>
      <use x="165.046875" xlink:href="#ArialMT-63"/>
      <use x="215.046875" xlink:href="#ArialMT-74"/>
      <use x="242.830078" xlink:href="#ArialMT-6f"/>
      <use x="298.445312" xlink:href="#ArialMT-72"/>
      <use x="331.746094" xlink:href="#ArialMT-2d"/>
      <use x="365.046875" xlink:href="#ArialMT-6c"/>
      <use x="387.263672" xlink:href="#ArialMT-69"/>
      <use x="409.480469" xlink:href="#ArialMT-6b"/>
      <use x="459.480469" xlink:href="#ArialMT-65"/>
      <use x="515.095703" xlink:href="#ArialMT-20"/>
      <use x="542.878906" xlink:href="#ArialMT-65"/>
      <use x="598.494141" xlink:href="#ArialMT-78"/>
      <use x="648.494141" xlink:href="#ArialMT-68"/>
      <use x="704.109375" xlink:href="#ArialMT-61"/>
      <use x="759.724609" xlink:href="#ArialMT-75"/>
      <use x="815.339844" xlink:href="#ArialMT-73"/>
      <use x="865.339844" xlink:href="#ArialMT-74"/>
      <use x="893.123047" xlink:href="#ArialMT-65"/>
      <use x="948.738281" xlink:href="#ArialMT-64"/>
     </g>
    </g>
    <g id="patch_31">
     <path d="M 49.3495 292.127363 
L 55.3495 292.127363 
L 55.3495 283.727363 
L 49.3495 283.727363 
z
" style="fill:#ffff99;"/>
    </g>
    <g id="text_14">
     <!-- intermediate exhausted -->
     <g transform="translate(60.1495 292.127363)scale(0.12 -0.12)">
      <use xlink:href="#ArialMT-69"/>
      <use x="22.216797" xlink:href="#ArialMT-6e"/>
      <use x="77.832031" xlink:href="#ArialMT-74"/>
      <use x="105.615234" xlink:href="#ArialMT-65"/>
      <use x="161.230469" xlink:href="#ArialMT-72"/>
      <use x="194.53125" xlink:href="#ArialMT-6d"/>
      <use x="277.832031" xlink:href="#ArialMT-65"/>
      <use x="333.447266" xlink:href="#ArialMT-64"/>
      <use x="389.0625" xlink:href="#ArialMT-69"/>
      <use x="411.279297" xlink:href="#ArialMT-61"/>
      <use x="466.894531" xlink:href="#ArialMT-74"/>
      <use x="494.677734" xlink:href="#ArialMT-65"/>
      <use x="550.292969" xlink:href="#ArialMT-20"/>
      <use x="578.076172" xlink:href="#ArialMT-65"/>
      <use x="633.691406" xlink:href="#ArialMT-78"/>
      <use x="683.691406" xlink:href="#ArialMT-68"/>
      <use x="739.306641" xlink:href="#ArialMT-61"/>
      <use x="794.921875" xlink:href="#ArialMT-75"/>
      <use x="850.537109" xlink:href="#ArialMT-73"/>
      <use x="900.537109" xlink:href="#ArialMT-74"/>
      <use x="928.320312" xlink:href="#ArialMT-65"/>
      <use x="983.935547" xlink:href="#ArialMT-64"/>
     </g>
    </g>
    <g id="patch_32">
     <path d="M 208.88575 258.037988 
L 214.88575 258.037988 
L 214.88575 249.637988 
L 208.88575 249.637988 
z
" style="fill:#386cb0;"/>
    </g>
    <g id="text_15">
     <!-- memory-like exhausted -->
     <g transform="translate(219.68575 258.037988)scale(0.12 -0.12)">
      <use xlink:href="#ArialMT-6d"/>
      <use x="83.300781" xlink:href="#ArialMT-65"/>
      <use x="138.916016" xlink:href="#ArialMT-6d"/>
      <use x="222.216797" xlink:href="#ArialMT-6f"/>
      <use x="277.832031" xlink:href="#ArialMT-72"/>
      <use x="311.132812" xlink:href="#ArialMT-79"/>
      <use x="361.132812" xlink:href="#ArialMT-2d"/>
      <use x="394.433594" xlink:href="#ArialMT-6c"/>
      <use x="416.650391" xlink:href="#ArialMT-69"/>
      <use x="438.867188" xlink:href="#ArialMT-6b"/>
      <use x="488.867188" xlink:href="#ArialMT-65"/>
      <use x="544.482422" xlink:href="#ArialMT-20"/>
      <use x="572.265625" xlink:href="#ArialMT-65"/>
      <use x="627.880859" xlink:href="#ArialMT-78"/>
      <use x="677.880859" xlink:href="#ArialMT-68"/>
      <use x="733.496094" xlink:href="#ArialMT-61"/>
      <use x="789.111328" xlink:href="#ArialMT-75"/>
      <use x="844.726562" xlink:href="#ArialMT-73"/>
      <use x="894.726562" xlink:href="#ArialMT-74"/>
      <use x="922.509766" xlink:href="#ArialMT-65"/>
      <use x="978.125" xlink:href="#ArialMT-64"/>
     </g>
    </g>
    <g id="patch_33">
     <path d="M 208.88575 275.299238 
L 214.88575 275.299238 
L 214.88575 266.899238 
L 208.88575 266.899238 
z
" style="fill:#bf5b17;"/>
    </g>
    <g id="text_16">
     <!-- proliferating -->
     <g transform="translate(219.68575 275.299238)scale(0.12 -0.12)">
      <defs>
       <path d="M 422 -1272 
L 422 3319 
L 934 3319 
L 934 2888 
Q 1116 3141 1344 3267 
Q 1572 3394 1897 3394 
Q 2322 3394 2647 3175 
Q 2972 2956 3137 2557 
Q 3303 2159 3303 1684 
Q 3303 1175 3120 767 
Q 2938 359 2589 142 
Q 2241 -75 1856 -75 
Q 1575 -75 1351 44 
Q 1128 163 984 344 
L 984 -1272 
L 422 -1272 
z
M 931 1641 
Q 931 1000 1190 694 
Q 1450 388 1819 388 
Q 2194 388 2461 705 
Q 2728 1022 2728 1688 
Q 2728 2322 2467 2637 
Q 2206 2953 1844 2953 
Q 1484 2953 1207 2617 
Q 931 2281 931 1641 
z
" id="ArialMT-70" transform="scale(0.015625)"/>
       <path d="M 319 -275 
L 866 -356 
Q 900 -609 1056 -725 
Q 1266 -881 1628 -881 
Q 2019 -881 2231 -725 
Q 2444 -569 2519 -288 
Q 2563 -116 2559 434 
Q 2191 0 1641 0 
Q 956 0 581 494 
Q 206 988 206 1678 
Q 206 2153 378 2554 
Q 550 2956 876 3175 
Q 1203 3394 1644 3394 
Q 2231 3394 2613 2919 
L 2613 3319 
L 3131 3319 
L 3131 450 
Q 3131 -325 2973 -648 
Q 2816 -972 2473 -1159 
Q 2131 -1347 1631 -1347 
Q 1038 -1347 672 -1080 
Q 306 -813 319 -275 
z
M 784 1719 
Q 784 1066 1043 766 
Q 1303 466 1694 466 
Q 2081 466 2343 764 
Q 2606 1063 2606 1700 
Q 2606 2309 2336 2618 
Q 2066 2928 1684 2928 
Q 1309 2928 1046 2623 
Q 784 2319 784 1719 
z
" id="ArialMT-67" transform="scale(0.015625)"/>
      </defs>
      <use xlink:href="#ArialMT-70"/>
      <use x="55.615234" xlink:href="#ArialMT-72"/>
      <use x="88.916016" xlink:href="#ArialMT-6f"/>
      <use x="144.53125" xlink:href="#ArialMT-6c"/>
      <use x="166.748047" xlink:href="#ArialMT-69"/>
      <use x="188.964844" xlink:href="#ArialMT-66"/>
      <use x="216.748047" xlink:href="#ArialMT-65"/>
      <use x="272.363281" xlink:href="#ArialMT-72"/>
      <use x="305.664062" xlink:href="#ArialMT-61"/>
      <use x="361.279297" xlink:href="#ArialMT-74"/>
      <use x="389.0625" xlink:href="#ArialMT-69"/>
      <use x="411.279297" xlink:href="#ArialMT-6e"/>
      <use x="466.894531" xlink:href="#ArialMT-67"/>
     </g>
    </g>
    <g id="patch_34">
     <path d="M 208.88575 292.414238 
L 214.88575 292.414238 
L 214.88575 284.014238 
L 208.88575 284.014238 
z
" style="fill:#666666;"/>
    </g>
    <g id="text_17">
     <!-- terminally exhausted -->
     <g transform="translate(219.68575 292.414238)scale(0.12 -0.12)">
      <use xlink:href="#ArialMT-74"/>
      <use x="27.783203" xlink:href="#ArialMT-65"/>
      <use x="83.398438" xlink:href="#ArialMT-72"/>
      <use x="116.699219" xlink:href="#ArialMT-6d"/>
      <use x="200" xlink:href="#ArialMT-69"/>
      <use x="222.216797" xlink:href="#ArialMT-6e"/>
      <use x="277.832031" xlink:href="#ArialMT-61"/>
      <use x="333.447266" xlink:href="#ArialMT-6c"/>
      <use x="355.664062" xlink:href="#ArialMT-6c"/>
      <use x="377.880859" xlink:href="#ArialMT-79"/>
      <use x="427.880859" xlink:href="#ArialMT-20"/>
      <use x="455.664062" xlink:href="#ArialMT-65"/>
      <use x="511.279297" xlink:href="#ArialMT-78"/>
      <use x="561.279297" xlink:href="#ArialMT-68"/>
      <use x="616.894531" xlink:href="#ArialMT-61"/>
      <use x="672.509766" xlink:href="#ArialMT-75"/>
      <use x="728.125" xlink:href="#ArialMT-73"/>
      <use x="778.125" xlink:href="#ArialMT-74"/>
      <use x="805.908203" xlink:href="#ArialMT-65"/>
      <use x="861.523438" xlink:href="#ArialMT-64"/>
     </g>
    </g>
   </g>
  </g>
  <g id="axes_2">
   <g id="patch_35">
    <path d="M 445.93096 190.212459 
L 860.99976 190.212459 
L 860.99976 28.758614 
L 445.93096 28.758614 
z
" style="fill:none;"/>
   </g>
   <g id="patch_36">
    <path clip-path="url(#pd19f2e047e)" d="M 463.225493 190.212459 
L 497.81456 190.212459 
L 497.81456 97.044799 
L 463.225493 97.044799 
z
" style="fill:#2b83ba;"/>
   </g>
   <g id="patch_37">
    <path clip-path="url(#pd19f2e047e)" d="M 532.403627 190.212459 
L 566.992693 190.212459 
L 566.992693 190.212459 
L 532.403627 190.212459 
z
" style="fill:#2b83ba;"/>
   </g>
   <g id="patch_38">
    <path clip-path="url(#pd19f2e047e)" d="M 601.58176 190.212459 
L 636.170827 190.212459 
L 636.170827 190.125953 
L 601.58176 190.125953 
z
" style="fill:#2b83ba;"/>
   </g>
   <g id="patch_39">
    <path clip-path="url(#pd19f2e047e)" d="M 670.759893 190.212459 
L 705.34896 190.212459 
L 705.34896 189.693419 
L 670.759893 189.693419 
z
" style="fill:#2b83ba;"/>
   </g>
   <g id="patch_40">
    <path clip-path="url(#pd19f2e047e)" d="M 739.938027 190.212459 
L 774.527093 190.212459 
L 774.527093 187.574007 
L 739.938027 187.574007 
z
" style="fill:#2b83ba;"/>
   </g>
   <g id="patch_41">
    <path clip-path="url(#pd19f2e047e)" d="M 809.11616 190.212459 
L 843.705227 190.212459 
L 843.705227 190.212459 
L 809.11616 190.212459 
z
" style="fill:#2b83ba;"/>
   </g>
   <g id="patch_42">
    <path clip-path="url(#pd19f2e047e)" d="M 463.225493 97.044799 
L 497.81456 97.044799 
L 497.81456 97.001546 
L 463.225493 97.001546 
z
" style="fill:#abdda4;"/>
   </g>
   <g id="patch_43">
    <path clip-path="url(#pd19f2e047e)" d="M 532.403627 190.212459 
L 566.992693 190.212459 
L 566.992693 189.390646 
L 532.403627 189.390646 
z
" style="fill:#abdda4;"/>
   </g>
   <g id="patch_44">
    <path clip-path="url(#pd19f2e047e)" d="M 601.58176 190.125953 
L 636.170827 190.125953 
L 636.170827 127.408633 
L 601.58176 127.408633 
z
" style="fill:#abdda4;"/>
   </g>
   <g id="patch_45">
    <path clip-path="url(#pd19f2e047e)" d="M 670.759893 189.693419 
L 705.34896 189.693419 
L 705.34896 163.352145 
L 670.759893 163.352145 
z
" style="fill:#abdda4;"/>
   </g>
   <g id="patch_46">
    <path clip-path="url(#pd19f2e047e)" d="M 739.938027 187.574007 
L 774.527093 187.574007 
L 774.527093 123.386073 
L 739.938027 123.386073 
z
" style="fill:#abdda4;"/>
   </g>
   <g id="patch_47">
    <path clip-path="url(#pd19f2e047e)" d="M 809.11616 190.212459 
L 843.705227 190.212459 
L 843.705227 188.7851 
L 809.11616 188.7851 
z
" style="fill:#abdda4;"/>
   </g>
   <g id="patch_48">
    <path clip-path="url(#pd19f2e047e)" d="M 463.225493 190.212459 
L 497.81456 190.212459 
L 497.81456 190.212459 
L 463.225493 190.212459 
z
" style="fill:#fdae61;"/>
   </g>
   <g id="patch_49">
    <path clip-path="url(#pd19f2e047e)" d="M 532.403627 189.390646 
L 566.992693 189.390646 
L 566.992693 143.585376 
L 532.403627 143.585376 
z
" style="fill:#fdae61;"/>
   </g>
   <g id="patch_50">
    <path clip-path="url(#pd19f2e047e)" d="M 601.58176 127.408633 
L 636.170827 127.408633 
L 636.170827 126.673326 
L 601.58176 126.673326 
z
" style="fill:#fdae61;"/>
   </g>
   <g id="patch_51">
    <path clip-path="url(#pd19f2e047e)" d="M 670.759893 163.352145 
L 705.34896 163.352145 
L 705.34896 132.858551 
L 670.759893 132.858551 
z
" style="fill:#fdae61;"/>
   </g>
   <g id="patch_52">
    <path clip-path="url(#pd19f2e047e)" d="M 739.938027 123.386073 
L 774.527093 123.386073 
L 774.527093 71.092805 
L 739.938027 71.092805 
z
" style="fill:#fdae61;"/>
   </g>
   <g id="patch_53">
    <path clip-path="url(#pd19f2e047e)" d="M 809.11616 188.7851 
L 843.705227 188.7851 
L 843.705227 141.249696 
L 809.11616 141.249696 
z
" style="fill:#fdae61;"/>
   </g>
   <g id="patch_54">
    <path clip-path="url(#pd19f2e047e)" d="M 463.225493 190.212459 
L 497.81456 190.212459 
L 497.81456 190.212459 
L 463.225493 190.212459 
z
" style="fill:#d7191c;"/>
   </g>
   <g id="patch_55">
    <path clip-path="url(#pd19f2e047e)" d="M 532.403627 143.585376 
L 566.992693 143.585376 
L 566.992693 134.112898 
L 532.403627 134.112898 
z
" style="fill:#d7191c;"/>
   </g>
   <g id="patch_56">
    <path clip-path="url(#pd19f2e047e)" d="M 601.58176 126.673326 
L 636.170827 126.673326 
L 636.170827 126.586819 
L 601.58176 126.586819 
z
" style="fill:#d7191c;"/>
   </g>
   <g id="patch_57">
    <path clip-path="url(#pd19f2e047e)" d="M 670.759893 132.858551 
L 705.34896 132.858551 
L 705.34896 101.326878 
L 670.759893 101.326878 
z
" style="fill:#d7191c;"/>
   </g>
   <g id="patch_58">
    <path clip-path="url(#pd19f2e047e)" d="M 739.938027 71.092805 
L 774.527093 71.092805 
L 774.527093 65.772646 
L 739.938027 65.772646 
z
" style="fill:#d7191c;"/>
   </g>
   <g id="patch_59">
    <path clip-path="url(#pd19f2e047e)" d="M 809.11616 141.249696 
L 843.705227 141.249696 
L 843.705227 36.446892 
L 809.11616 36.446892 
z
" style="fill:#d7191c;"/>
   </g>
   <g id="matplotlib.axis_3">
    <g id="xtick_5">
     <g id="line2d_10">
      <g>
       <use style="stroke:#000000;stroke-width:0.8;" x="480.520027" xlink:href="#m2459ececbe" y="190.212459"/>
      </g>
     </g>
     <g id="text_18">
      <!-- early -->
      <g transform="translate(460.343618 221.676586)rotate(-45)scale(0.12 -0.12)">
       <use xlink:href="#ArialMT-65"/>
       <use x="55.615234" xlink:href="#ArialMT-61"/>
       <use x="111.230469" xlink:href="#ArialMT-72"/>
       <use x="144.53125" xlink:href="#ArialMT-6c"/>
       <use x="166.748047" xlink:href="#ArialMT-79"/>
      </g>
     </g>
    </g>
    <g id="xtick_6">
     <g id="line2d_11">
      <g>
       <use style="stroke:#000000;stroke-width:0.8;" x="549.69816" xlink:href="#m2459ececbe" y="190.212459"/>
      </g>
     </g>
     <g id="text_19">
      <!-- effector-like exhausted -->
      <g transform="translate(462.79562 288.502154)rotate(-45)scale(0.12 -0.12)">
       <use xlink:href="#ArialMT-65"/>
       <use x="55.615234" xlink:href="#ArialMT-66"/>
       <use x="81.648438" xlink:href="#ArialMT-66"/>
       <use x="109.431641" xlink:href="#ArialMT-65"/>
       <use x="165.046875" xlink:href="#ArialMT-63"/>
       <use x="215.046875" xlink:href="#ArialMT-74"/>
       <use x="242.830078" xlink:href="#ArialMT-6f"/>
       <use x="298.445312" xlink:href="#ArialMT-72"/>
       <use x="331.746094" xlink:href="#ArialMT-2d"/>
       <use x="365.046875" xlink:href="#ArialMT-6c"/>
       <use x="387.263672" xlink:href="#ArialMT-69"/>
       <use x="409.480469" xlink:href="#ArialMT-6b"/>
       <use x="459.480469" xlink:href="#ArialMT-65"/>
       <use x="515.095703" xlink:href="#ArialMT-20"/>
       <use x="542.878906" xlink:href="#ArialMT-65"/>
       <use x="598.494141" xlink:href="#ArialMT-78"/>
       <use x="648.494141" xlink:href="#ArialMT-68"/>
       <use x="704.109375" xlink:href="#ArialMT-61"/>
       <use x="759.724609" xlink:href="#ArialMT-75"/>
       <use x="815.339844" xlink:href="#ArialMT-73"/>
       <use x="865.339844" xlink:href="#ArialMT-74"/>
       <use x="893.123047" xlink:href="#ArialMT-65"/>
       <use x="948.738281" xlink:href="#ArialMT-64"/>
      </g>
     </g>
    </g>
    <g id="xtick_7">
     <g id="line2d_12">
      <g>
       <use style="stroke:#000000;stroke-width:0.8;" x="618.876293" xlink:href="#m2459ececbe" y="190.212459"/>
      </g>
     </g>
     <g id="text_20">
      <!-- intermediate exhausted -->
      <g transform="translate(528.987995 291.487913)rotate(-45)scale(0.12 -0.12)">
       <use xlink:href="#ArialMT-69"/>
       <use x="22.216797" xlink:href="#ArialMT-6e"/>
       <use x="77.832031" xlink:href="#ArialMT-74"/>
       <use x="105.615234" xlink:href="#ArialMT-65"/>
       <use x="161.230469" xlink:href="#ArialMT-72"/>
       <use x="194.53125" xlink:href="#ArialMT-6d"/>
       <use x="277.832031" xlink:href="#ArialMT-65"/>
       <use x="333.447266" xlink:href="#ArialMT-64"/>
       <use x="389.0625" xlink:href="#ArialMT-69"/>
       <use x="411.279297" xlink:href="#ArialMT-61"/>
       <use x="466.894531" xlink:href="#ArialMT-74"/>
       <use x="494.677734" xlink:href="#ArialMT-65"/>
       <use x="550.292969" xlink:href="#ArialMT-20"/>
       <use x="578.076172" xlink:href="#ArialMT-65"/>
       <use x="633.691406" xlink:href="#ArialMT-78"/>
       <use x="683.691406" xlink:href="#ArialMT-68"/>
       <use x="739.306641" xlink:href="#ArialMT-61"/>
       <use x="794.921875" xlink:href="#ArialMT-75"/>
       <use x="850.537109" xlink:href="#ArialMT-73"/>
       <use x="900.537109" xlink:href="#ArialMT-74"/>
       <use x="928.320312" xlink:href="#ArialMT-65"/>
       <use x="983.935547" xlink:href="#ArialMT-64"/>
      </g>
     </g>
    </g>
    <g id="xtick_8">
     <g id="line2d_13">
      <g>
       <use style="stroke:#000000;stroke-width:0.8;" x="688.054427" xlink:href="#m2459ececbe" y="190.212459"/>
      </g>
     </g>
     <g id="text_21">
      <!-- memory-like exhausted -->
      <g transform="translate(598.558573 290.996032)rotate(-45)scale(0.12 -0.12)">
       <use xlink:href="#ArialMT-6d"/>
       <use x="83.300781" xlink:href="#ArialMT-65"/>
       <use x="138.916016" xlink:href="#ArialMT-6d"/>
       <use x="222.216797" xlink:href="#ArialMT-6f"/>
       <use x="277.832031" xlink:href="#ArialMT-72"/>
       <use x="311.132812" xlink:href="#ArialMT-79"/>
       <use x="361.132812" xlink:href="#ArialMT-2d"/>
       <use x="394.433594" xlink:href="#ArialMT-6c"/>
       <use x="416.650391" xlink:href="#ArialMT-69"/>
       <use x="438.867188" xlink:href="#ArialMT-6b"/>
       <use x="488.867188" xlink:href="#ArialMT-65"/>
       <use x="544.482422" xlink:href="#ArialMT-20"/>
       <use x="572.265625" xlink:href="#ArialMT-65"/>
       <use x="627.880859" xlink:href="#ArialMT-78"/>
       <use x="677.880859" xlink:href="#ArialMT-68"/>
       <use x="733.496094" xlink:href="#ArialMT-61"/>
       <use x="789.111328" xlink:href="#ArialMT-75"/>
       <use x="844.726562" xlink:href="#ArialMT-73"/>
       <use x="894.726562" xlink:href="#ArialMT-74"/>
       <use x="922.509766" xlink:href="#ArialMT-65"/>
       <use x="978.125" xlink:href="#ArialMT-64"/>
      </g>
     </g>
    </g>
    <g id="xtick_9">
     <g id="line2d_14">
      <g>
       <use style="stroke:#000000;stroke-width:0.8;" x="757.23256" xlink:href="#m2459ececbe" y="190.212459"/>
      </g>
     </g>
     <g id="text_22">
      <!-- proliferating -->
      <g transform="translate(711.11373 247.722422)rotate(-45)scale(0.12 -0.12)">
       <use xlink:href="#ArialMT-70"/>
       <use x="55.615234" xlink:href="#ArialMT-72"/>
       <use x="88.916016" xlink:href="#ArialMT-6f"/>
       <use x="144.53125" xlink:href="#ArialMT-6c"/>
       <use x="166.748047" xlink:href="#ArialMT-69"/>
       <use x="188.964844" xlink:href="#ArialMT-66"/>
       <use x="216.748047" xlink:href="#ArialMT-65"/>
       <use x="272.363281" xlink:href="#ArialMT-72"/>
       <use x="305.664062" xlink:href="#ArialMT-61"/>
       <use x="361.279297" xlink:href="#ArialMT-74"/>
       <use x="389.0625" xlink:href="#ArialMT-69"/>
       <use x="411.279297" xlink:href="#ArialMT-6e"/>
       <use x="466.894531" xlink:href="#ArialMT-67"/>
      </g>
     </g>
    </g>
    <g id="xtick_10">
     <g id="line2d_15">
      <g>
       <use style="stroke:#000000;stroke-width:0.8;" x="826.410693" xlink:href="#m2459ececbe" y="190.212459"/>
      </g>
     </g>
     <g id="text_23">
      <!-- terminally exhausted -->
      <g transform="translate(746.808147 281.102724)rotate(-45)scale(0.12 -0.12)">
       <use xlink:href="#ArialMT-74"/>
       <use x="27.783203" xlink:href="#ArialMT-65"/>
       <use x="83.398438" xlink:href="#ArialMT-72"/>
       <use x="116.699219" xlink:href="#ArialMT-6d"/>
       <use x="200" xlink:href="#ArialMT-69"/>
       <use x="222.216797" xlink:href="#ArialMT-6e"/>
       <use x="277.832031" xlink:href="#ArialMT-61"/>
       <use x="333.447266" xlink:href="#ArialMT-6c"/>
       <use x="355.664062" xlink:href="#ArialMT-6c"/>
       <use x="377.880859" xlink:href="#ArialMT-79"/>
       <use x="427.880859" xlink:href="#ArialMT-20"/>
       <use x="455.664062" xlink:href="#ArialMT-65"/>
       <use x="511.279297" xlink:href="#ArialMT-78"/>
       <use x="561.279297" xlink:href="#ArialMT-68"/>
       <use x="616.894531" xlink:href="#ArialMT-61"/>
       <use x="672.509766" xlink:href="#ArialMT-75"/>
       <use x="728.125" xlink:href="#ArialMT-73"/>
       <use x="778.125" xlink:href="#ArialMT-74"/>
       <use x="805.908203" xlink:href="#ArialMT-65"/>
       <use x="861.523438" xlink:href="#ArialMT-64"/>
      </g>
     </g>
    </g>
   </g>
   <g id="matplotlib.axis_4">
    <g id="ytick_6">
     <g id="line2d_16">
      <g>
       <use style="stroke:#000000;stroke-width:0.8;" x="445.93096" xlink:href="#m705b5f045e" y="190.212459"/>
      </g>
     </g>
     <g id="text_24">
      <!-- 0 -->
      <g transform="translate(432.791685 194.163572)scale(0.1104 -0.1104)">
       <use xlink:href="#ArialMT-30"/>
      </g>
     </g>
    </g>
    <g id="ytick_7">
     <g id="line2d_17">
      <g>
       <use style="stroke:#000000;stroke-width:0.8;" x="445.93096" xlink:href="#m705b5f045e" y="146.959135"/>
      </g>
     </g>
     <g id="text_25">
      <!-- 1000 -->
      <g transform="translate(414.37386 150.910248)scale(0.1104 -0.1104)">
       <use xlink:href="#ArialMT-31"/>
       <use x="55.615234" xlink:href="#ArialMT-30"/>
       <use x="111.230469" xlink:href="#ArialMT-30"/>
       <use x="166.845703" xlink:href="#ArialMT-30"/>
      </g>
     </g>
    </g>
    <g id="ytick_8">
     <g id="line2d_18">
      <g>
       <use style="stroke:#000000;stroke-width:0.8;" x="445.93096" xlink:href="#m705b5f045e" y="103.705811"/>
      </g>
     </g>
     <g id="text_26">
      <!-- 2000 -->
      <g transform="translate(414.37386 107.656923)scale(0.1104 -0.1104)">
       <use xlink:href="#ArialMT-32"/>
       <use x="55.615234" xlink:href="#ArialMT-30"/>
       <use x="111.230469" xlink:href="#ArialMT-30"/>
       <use x="166.845703" xlink:href="#ArialMT-30"/>
      </g>
     </g>
    </g>
    <g id="ytick_9">
     <g id="line2d_19">
      <g>
       <use style="stroke:#000000;stroke-width:0.8;" x="445.93096" xlink:href="#m705b5f045e" y="60.452487"/>
      </g>
     </g>
     <g id="text_27">
      <!-- 3000 -->
      <g transform="translate(414.37386 64.403599)scale(0.1104 -0.1104)">
       <use xlink:href="#ArialMT-33"/>
       <use x="55.615234" xlink:href="#ArialMT-30"/>
       <use x="111.230469" xlink:href="#ArialMT-30"/>
       <use x="166.845703" xlink:href="#ArialMT-30"/>
      </g>
     </g>
    </g>
    <g id="text_28">
     <!-- number of cells -->
     <g transform="translate(407.98886 150.167411)rotate(-90)scale(0.12 -0.12)">
      <use xlink:href="#ArialMT-6e"/>
      <use x="55.615234" xlink:href="#ArialMT-75"/>
      <use x="111.230469" xlink:href="#ArialMT-6d"/>
      <use x="194.53125" xlink:href="#ArialMT-62"/>
      <use x="250.146484" xlink:href="#ArialMT-65"/>
      <use x="305.761719" xlink:href="#ArialMT-72"/>
      <use x="339.0625" xlink:href="#ArialMT-20"/>
      <use x="366.845703" xlink:href="#ArialMT-6f"/>
      <use x="422.460938" xlink:href="#ArialMT-66"/>
      <use x="450.244141" xlink:href="#ArialMT-20"/>
      <use x="478.027344" xlink:href="#ArialMT-63"/>
      <use x="528.027344" xlink:href="#ArialMT-65"/>
      <use x="583.642578" xlink:href="#ArialMT-6c"/>
      <use x="605.859375" xlink:href="#ArialMT-6c"/>
      <use x="628.076172" xlink:href="#ArialMT-73"/>
     </g>
    </g>
   </g>
   <g id="patch_60">
    <path d="M 445.93096 190.212459 
L 445.93096 28.758614 
" style="fill:none;stroke:#000000;stroke-linecap:square;stroke-linejoin:miter;stroke-width:0.8;"/>
   </g>
   <g id="patch_61">
    <path d="M 445.93096 190.212459 
L 860.99976 190.212459 
" style="fill:none;stroke:#000000;stroke-linecap:square;stroke-linejoin:miter;stroke-width:0.8;"/>
   </g>
   <g id="text_29">
    <!-- B -->
    <g transform="translate(391.972016 9.455729)scale(0.16 -0.16)">
     <defs>
      <path d="M 469 4581 
L 2300 4581 
Q 2844 4581 3111 4536 
Q 3378 4491 3589 4347 
Q 3800 4203 3940 3964 
Q 4081 3725 4081 3428 
Q 4081 3106 3907 2837 
Q 3734 2569 3438 2434 
Q 3856 2313 4081 2019 
Q 4306 1725 4306 1328 
Q 4306 1016 4161 720 
Q 4016 425 3764 248 
Q 3513 72 3144 31 
Q 2913 6 2028 0 
L 469 0 
L 469 4581 
z
M 1394 3819 
L 1394 2759 
L 2000 2759 
Q 2541 2759 2672 2775 
Q 2909 2803 3045 2939 
Q 3181 3075 3181 3297 
Q 3181 3509 3064 3642 
Q 2947 3775 2716 3803 
Q 2578 3819 1925 3819 
L 1394 3819 
z
M 1394 1997 
L 1394 772 
L 2250 772 
Q 2750 772 2884 800 
Q 3091 838 3220 983 
Q 3350 1128 3350 1372 
Q 3350 1578 3250 1722 
Q 3150 1866 2961 1931 
Q 2772 1997 2141 1997 
L 1394 1997 
z
" id="Arial-BoldMT-42" transform="scale(0.015625)"/>
     </defs>
     <use xlink:href="#Arial-BoldMT-42"/>
    </g>
   </g>
   <g id="legend_2">
    <g id="patch_62">
     <path d="M 608.648172 314.546834 
L 614.648172 314.546834 
L 614.648172 306.146834 
L 608.648172 306.146834 
z
" style="fill:#2b83ba;"/>
    </g>
    <g id="text_30">
     <!-- d1-4 -->
     <g transform="translate(619.448172 314.546834)scale(0.12 -0.12)">
      <use xlink:href="#ArialMT-64"/>
      <use x="55.615234" xlink:href="#ArialMT-31"/>
      <use x="111.230469" xlink:href="#ArialMT-2d"/>
      <use x="144.53125" xlink:href="#ArialMT-34"/>
     </g>
    </g>
    <g id="patch_63">
     <path d="M 608.648172 331.521209 
L 614.648172 331.521209 
L 614.648172 323.121209 
L 608.648172 323.121209 
z
" style="fill:#abdda4;"/>
    </g>
    <g id="text_31">
     <!-- d7 -->
     <g transform="translate(619.448172 331.521209)scale(0.12 -0.12)">
      <use xlink:href="#ArialMT-64"/>
      <use x="55.615234" xlink:href="#ArialMT-37"/>
     </g>
    </g>
    <g id="patch_64">
     <path d="M 667.463172 314.546834 
L 673.463172 314.546834 
L 673.463172 306.146834 
L 667.463172 306.146834 
z
" style="fill:#fdae61;"/>
    </g>
    <g id="text_32">
     <!-- d14 -->
     <g transform="translate(678.263172 314.546834)scale(0.12 -0.12)">
      <use xlink:href="#ArialMT-64"/>
      <use x="55.615234" xlink:href="#ArialMT-31"/>
      <use x="111.230469" xlink:href="#ArialMT-34"/>
     </g>
    </g>
    <g id="patch_65">
     <path d="M 667.463172 331.521209 
L 673.463172 331.521209 
L 673.463172 323.121209 
L 667.463172 323.121209 
z
" style="fill:#d7191c;"/>
    </g>
    <g id="text_33">
     <!-- d21 -->
     <g transform="translate(678.263172 331.521209)scale(0.12 -0.12)">
      <use xlink:href="#ArialMT-64"/>
      <use x="55.615234" xlink:href="#ArialMT-32"/>
      <use x="111.230469" xlink:href="#ArialMT-31"/>
     </g>
    </g>
   </g>
  </g>
  <g id="axes_3">
   <g id="patch_66">
    <path d="M 58.181671 542.037857 
L 334.894204 542.037857 
L 334.894204 380.584011 
L 58.181671 380.584011 
z
" style="fill:none;"/>
   </g>
   <g id="patch_67">
    <path clip-path="url(#p2552c6cd4e)" d="M 75.476204 542.037857 
L 110.065271 542.037857 
L 110.065271 393.446097 
L 75.476204 393.446097 
z
" style="fill:#7fc97f;"/>
   </g>
   <g id="patch_68">
    <path clip-path="url(#p2552c6cd4e)" d="M 144.654337 542.037857 
L 179.243404 542.037857 
L 179.243404 541.995097 
L 144.654337 541.995097 
z
" style="fill:#7fc97f;"/>
   </g>
   <g id="patch_69">
    <path clip-path="url(#p2552c6cd4e)" d="M 213.832471 542.037857 
L 248.421537 542.037857 
L 248.421537 542.037857 
L 213.832471 542.037857 
z
" style="fill:#7fc97f;"/>
   </g>
   <g id="patch_70">
    <path clip-path="url(#p2552c6cd4e)" d="M 283.010604 542.037857 
L 317.599671 542.037857 
L 317.599671 542.037857 
L 283.010604 542.037857 
z
" style="fill:#7fc97f;"/>
   </g>
   <g id="patch_71">
    <path clip-path="url(#p2552c6cd4e)" d="M 75.476204 542.037857 
L 110.065271 542.037857 
L 110.065271 542.037857 
L 75.476204 542.037857 
z
" style="fill:#beaed4;"/>
   </g>
   <g id="patch_72">
    <path clip-path="url(#p2552c6cd4e)" d="M 144.654337 541.995097 
L 179.243404 541.995097 
L 179.243404 541.182653 
L 144.654337 541.182653 
z
" style="fill:#beaed4;"/>
   </g>
   <g id="patch_73">
    <path clip-path="url(#p2552c6cd4e)" d="M 213.832471 542.037857 
L 248.421537 542.037857 
L 248.421537 502.214493 
L 213.832471 502.214493 
z
" style="fill:#beaed4;"/>
   </g>
   <g id="patch_74">
    <path clip-path="url(#p2552c6cd4e)" d="M 283.010604 542.037857 
L 317.599671 542.037857 
L 317.599671 532.405517 
L 283.010604 532.405517 
z
" style="fill:#beaed4;"/>
   </g>
   <g id="patch_75">
    <path clip-path="url(#p2552c6cd4e)" d="M 75.476204 393.446097 
L 110.065271 393.446097 
L 110.065271 393.308129 
L 75.476204 393.308129 
z
" style="fill:#ffff99;"/>
   </g>
   <g id="patch_76">
    <path clip-path="url(#p2552c6cd4e)" d="M 144.654337 541.182653 
L 179.243404 541.182653 
L 179.243404 479.180409 
L 144.654337 479.180409 
z
" style="fill:#ffff99;"/>
   </g>
   <g id="patch_77">
    <path clip-path="url(#p2552c6cd4e)" d="M 213.832471 502.214493 
L 248.421537 502.214493 
L 248.421537 501.575213 
L 213.832471 501.575213 
z
" style="fill:#ffff99;"/>
   </g>
   <g id="patch_78">
    <path clip-path="url(#p2552c6cd4e)" d="M 283.010604 532.405517 
L 317.599671 532.405517 
L 317.599671 532.317551 
L 283.010604 532.317551 
z
" style="fill:#ffff99;"/>
   </g>
   <g id="patch_79">
    <path clip-path="url(#p2552c6cd4e)" d="M 75.476204 393.308129 
L 110.065271 393.308129 
L 110.065271 392.48032 
L 75.476204 392.48032 
z
" style="fill:#386cb0;"/>
   </g>
   <g id="patch_80">
    <path clip-path="url(#p2552c6cd4e)" d="M 144.654337 479.180409 
L 179.243404 479.180409 
L 179.243404 453.139466 
L 144.654337 453.139466 
z
" style="fill:#386cb0;"/>
   </g>
   <g id="patch_81">
    <path clip-path="url(#p2552c6cd4e)" d="M 213.832471 501.575213 
L 248.421537 501.575213 
L 248.421537 475.063908 
L 213.832471 475.063908 
z
" style="fill:#386cb0;"/>
   </g>
   <g id="patch_82">
    <path clip-path="url(#p2552c6cd4e)" d="M 283.010604 532.317551 
L 317.599671 532.317551 
L 317.599671 500.253735 
L 283.010604 500.253735 
z
" style="fill:#386cb0;"/>
   </g>
   <g id="patch_83">
    <path clip-path="url(#p2552c6cd4e)" d="M 75.476204 392.48032 
L 110.065271 392.48032 
L 110.065271 388.272289 
L 75.476204 388.272289 
z
" style="fill:#bf5b17;"/>
   </g>
   <g id="patch_84">
    <path clip-path="url(#p2552c6cd4e)" d="M 144.654337 453.139466 
L 179.243404 453.139466 
L 179.243404 389.683375 
L 144.654337 389.683375 
z
" style="fill:#bf5b17;"/>
   </g>
   <g id="patch_85">
    <path clip-path="url(#p2552c6cd4e)" d="M 213.832471 475.063908 
L 248.421537 475.063908 
L 248.421537 429.599841 
L 213.832471 429.599841 
z
" style="fill:#bf5b17;"/>
   </g>
   <g id="patch_86">
    <path clip-path="url(#p2552c6cd4e)" d="M 283.010604 500.253735 
L 317.599671 500.253735 
L 317.599671 494.843791 
L 283.010604 494.843791 
z
" style="fill:#bf5b17;"/>
   </g>
   <g id="patch_87">
    <path clip-path="url(#p2552c6cd4e)" d="M 75.476204 542.037857 
L 110.065271 542.037857 
L 110.065271 542.037857 
L 75.476204 542.037857 
z
" style="fill:#666666;"/>
   </g>
   <g id="patch_88">
    <path clip-path="url(#p2552c6cd4e)" d="M 144.654337 389.683375 
L 179.243404 389.683375 
L 179.243404 388.272289 
L 144.654337 388.272289 
z
" style="fill:#666666;"/>
   </g>
   <g id="patch_89">
    <path clip-path="url(#p2552c6cd4e)" d="M 213.832471 429.599841 
L 248.421537 429.599841 
L 248.421537 388.272289 
L 213.832471 388.272289 
z
" style="fill:#666666;"/>
   </g>
   <g id="patch_90">
    <path clip-path="url(#p2552c6cd4e)" d="M 283.010604 494.843791 
L 317.599671 494.843791 
L 317.599671 388.272289 
L 283.010604 388.272289 
z
" style="fill:#666666;"/>
   </g>
   <g id="matplotlib.axis_5">
    <g id="xtick_11">
     <g id="line2d_20">
      <g>
       <use style="stroke:#000000;stroke-width:0.8;" x="92.770737" xlink:href="#m2459ececbe" y="542.037857"/>
      </g>
     </g>
     <g id="text_34">
      <!-- d1-4 -->
      <g transform="translate(74.103118 572.092631)rotate(-45)scale(0.12 -0.12)">
       <use xlink:href="#ArialMT-64"/>
       <use x="55.615234" xlink:href="#ArialMT-31"/>
       <use x="111.230469" xlink:href="#ArialMT-2d"/>
       <use x="144.53125" xlink:href="#ArialMT-34"/>
      </g>
     </g>
    </g>
    <g id="xtick_12">
     <g id="line2d_21">
      <g>
       <use style="stroke:#000000;stroke-width:0.8;" x="161.948871" xlink:href="#m2459ececbe" y="542.037857"/>
      </g>
     </g>
     <g id="text_35">
      <!-- d7 -->
      <g transform="translate(150.825197 564.548686)rotate(-45)scale(0.12 -0.12)">
       <use xlink:href="#ArialMT-64"/>
       <use x="55.615234" xlink:href="#ArialMT-37"/>
      </g>
     </g>
    </g>
    <g id="xtick_13">
     <g id="line2d_22">
      <g>
       <use style="stroke:#000000;stroke-width:0.8;" x="231.127004" xlink:href="#m2459ececbe" y="542.037857"/>
      </g>
     </g>
     <g id="text_36">
      <!-- d14 -->
      <g transform="translate(215.284719 569.267298)rotate(-45)scale(0.12 -0.12)">
       <use xlink:href="#ArialMT-64"/>
       <use x="55.615234" xlink:href="#ArialMT-31"/>
       <use x="111.230469" xlink:href="#ArialMT-34"/>
      </g>
     </g>
    </g>
    <g id="xtick_14">
     <g id="line2d_23">
      <g>
       <use style="stroke:#000000;stroke-width:0.8;" x="300.305137" xlink:href="#m2459ececbe" y="542.037857"/>
      </g>
     </g>
     <g id="text_37">
      <!-- d21 -->
      <g transform="translate(284.462852 569.267298)rotate(-45)scale(0.12 -0.12)">
       <use xlink:href="#ArialMT-64"/>
       <use x="55.615234" xlink:href="#ArialMT-32"/>
       <use x="111.230469" xlink:href="#ArialMT-31"/>
      </g>
     </g>
    </g>
   </g>
   <g id="matplotlib.axis_6">
    <g id="ytick_10">
     <g id="line2d_24">
      <g>
       <use style="stroke:#000000;stroke-width:0.8;" x="58.181671" xlink:href="#m705b5f045e" y="542.037857"/>
      </g>
     </g>
     <g id="text_38">
      <!-- 0.0 -->
      <g transform="translate(35.836071 545.988969)scale(0.1104 -0.1104)">
       <defs>
        <path d="M 581 0 
L 581 641 
L 1222 641 
L 1222 0 
L 581 0 
z
" id="ArialMT-2e" transform="scale(0.015625)"/>
       </defs>
       <use xlink:href="#ArialMT-30"/>
       <use x="55.615234" xlink:href="#ArialMT-2e"/>
       <use x="83.398438" xlink:href="#ArialMT-30"/>
      </g>
     </g>
    </g>
    <g id="ytick_11">
     <g id="line2d_25">
      <g>
       <use style="stroke:#000000;stroke-width:0.8;" x="58.181671" xlink:href="#m705b5f045e" y="511.284743"/>
      </g>
     </g>
     <g id="text_39">
      <!-- 0.2 -->
      <g transform="translate(35.836071 515.235856)scale(0.1104 -0.1104)">
       <use xlink:href="#ArialMT-30"/>
       <use x="55.615234" xlink:href="#ArialMT-2e"/>
       <use x="83.398438" xlink:href="#ArialMT-32"/>
      </g>
     </g>
    </g>
    <g id="ytick_12">
     <g id="line2d_26">
      <g>
       <use style="stroke:#000000;stroke-width:0.8;" x="58.181671" xlink:href="#m705b5f045e" y="480.53163"/>
      </g>
     </g>
     <g id="text_40">
      <!-- 0.4 -->
      <g transform="translate(35.836071 484.482742)scale(0.1104 -0.1104)">
       <use xlink:href="#ArialMT-30"/>
       <use x="55.615234" xlink:href="#ArialMT-2e"/>
       <use x="83.398438" xlink:href="#ArialMT-34"/>
      </g>
     </g>
    </g>
    <g id="ytick_13">
     <g id="line2d_27">
      <g>
       <use style="stroke:#000000;stroke-width:0.8;" x="58.181671" xlink:href="#m705b5f045e" y="449.778516"/>
      </g>
     </g>
     <g id="text_41">
      <!-- 0.6 -->
      <g transform="translate(35.836071 453.729629)scale(0.1104 -0.1104)">
       <defs>
        <path d="M 3184 3459 
L 2625 3416 
Q 2550 3747 2413 3897 
Q 2184 4138 1850 4138 
Q 1581 4138 1378 3988 
Q 1113 3794 959 3422 
Q 806 3050 800 2363 
Q 1003 2672 1297 2822 
Q 1591 2972 1913 2972 
Q 2475 2972 2870 2558 
Q 3266 2144 3266 1488 
Q 3266 1056 3080 686 
Q 2894 316 2569 119 
Q 2244 -78 1831 -78 
Q 1128 -78 684 439 
Q 241 956 241 2144 
Q 241 3472 731 4075 
Q 1159 4600 1884 4600 
Q 2425 4600 2770 4297 
Q 3116 3994 3184 3459 
z
M 888 1484 
Q 888 1194 1011 928 
Q 1134 663 1356 523 
Q 1578 384 1822 384 
Q 2178 384 2434 671 
Q 2691 959 2691 1453 
Q 2691 1928 2437 2201 
Q 2184 2475 1800 2475 
Q 1419 2475 1153 2201 
Q 888 1928 888 1484 
z
" id="ArialMT-36" transform="scale(0.015625)"/>
       </defs>
       <use xlink:href="#ArialMT-30"/>
       <use x="55.615234" xlink:href="#ArialMT-2e"/>
       <use x="83.398438" xlink:href="#ArialMT-36"/>
      </g>
     </g>
    </g>
    <g id="ytick_14">
     <g id="line2d_28">
      <g>
       <use style="stroke:#000000;stroke-width:0.8;" x="58.181671" xlink:href="#m705b5f045e" y="419.025403"/>
      </g>
     </g>
     <g id="text_42">
      <!-- 0.8 -->
      <g transform="translate(35.836071 422.976515)scale(0.1104 -0.1104)">
       <defs>
        <path d="M 1131 2484 
Q 781 2613 612 2850 
Q 444 3088 444 3419 
Q 444 3919 803 4259 
Q 1163 4600 1759 4600 
Q 2359 4600 2725 4251 
Q 3091 3903 3091 3403 
Q 3091 3084 2923 2848 
Q 2756 2613 2416 2484 
Q 2838 2347 3058 2040 
Q 3278 1734 3278 1309 
Q 3278 722 2862 322 
Q 2447 -78 1769 -78 
Q 1091 -78 675 323 
Q 259 725 259 1325 
Q 259 1772 486 2073 
Q 713 2375 1131 2484 
z
M 1019 3438 
Q 1019 3113 1228 2906 
Q 1438 2700 1772 2700 
Q 2097 2700 2305 2904 
Q 2513 3109 2513 3406 
Q 2513 3716 2298 3927 
Q 2084 4138 1766 4138 
Q 1444 4138 1231 3931 
Q 1019 3725 1019 3438 
z
M 838 1322 
Q 838 1081 952 856 
Q 1066 631 1291 507 
Q 1516 384 1775 384 
Q 2178 384 2440 643 
Q 2703 903 2703 1303 
Q 2703 1709 2433 1975 
Q 2163 2241 1756 2241 
Q 1359 2241 1098 1978 
Q 838 1716 838 1322 
z
" id="ArialMT-38" transform="scale(0.015625)"/>
       </defs>
       <use xlink:href="#ArialMT-30"/>
       <use x="55.615234" xlink:href="#ArialMT-2e"/>
       <use x="83.398438" xlink:href="#ArialMT-38"/>
      </g>
     </g>
    </g>
    <g id="ytick_15">
     <g id="line2d_29">
      <g>
       <use style="stroke:#000000;stroke-width:0.8;" x="58.181671" xlink:href="#m705b5f045e" y="388.272289"/>
      </g>
     </g>
     <g id="text_43">
      <!-- 1.0 -->
      <g transform="translate(35.836071 392.223402)scale(0.1104 -0.1104)">
       <use xlink:href="#ArialMT-31"/>
       <use x="55.615234" xlink:href="#ArialMT-2e"/>
       <use x="83.398438" xlink:href="#ArialMT-30"/>
      </g>
     </g>
    </g>
    <g id="text_44">
     <!-- fraction of cells -->
     <g transform="translate(29.451071 501.325309)rotate(-90)scale(0.12 -0.12)">
      <use xlink:href="#ArialMT-66"/>
      <use x="27.783203" xlink:href="#ArialMT-72"/>
      <use x="61.083984" xlink:href="#ArialMT-61"/>
      <use x="116.699219" xlink:href="#ArialMT-63"/>
      <use x="166.699219" xlink:href="#ArialMT-74"/>
      <use x="194.482422" xlink:href="#ArialMT-69"/>
      <use x="216.699219" xlink:href="#ArialMT-6f"/>
      <use x="272.314453" xlink:href="#ArialMT-6e"/>
      <use x="327.929688" xlink:href="#ArialMT-20"/>
      <use x="355.712891" xlink:href="#ArialMT-6f"/>
      <use x="411.328125" xlink:href="#ArialMT-66"/>
      <use x="439.111328" xlink:href="#ArialMT-20"/>
      <use x="466.894531" xlink:href="#ArialMT-63"/>
      <use x="516.894531" xlink:href="#ArialMT-65"/>
      <use x="572.509766" xlink:href="#ArialMT-6c"/>
      <use x="594.726562" xlink:href="#ArialMT-6c"/>
      <use x="616.943359" xlink:href="#ArialMT-73"/>
     </g>
    </g>
   </g>
   <g id="patch_91">
    <path d="M 58.181671 542.037857 
L 58.181671 380.584011 
" style="fill:none;stroke:#000000;stroke-linecap:square;stroke-linejoin:miter;stroke-width:0.8;"/>
   </g>
   <g id="patch_92">
    <path d="M 58.181671 542.037857 
L 334.894204 542.037857 
" style="fill:none;stroke:#000000;stroke-linecap:square;stroke-linejoin:miter;stroke-width:0.8;"/>
   </g>
   <g id="text_45">
    <!-- C -->
    <g transform="translate(2.839164 361.281127)scale(0.16 -0.16)">
     <defs>
      <path d="M 3397 1684 
L 4294 1400 
Q 4088 650 3608 286 
Q 3128 -78 2391 -78 
Q 1478 -78 890 545 
Q 303 1169 303 2250 
Q 303 3394 893 4026 
Q 1484 4659 2447 4659 
Q 3288 4659 3813 4163 
Q 4125 3869 4281 3319 
L 3366 3100 
Q 3284 3456 3026 3662 
Q 2769 3869 2400 3869 
Q 1891 3869 1573 3503 
Q 1256 3138 1256 2319 
Q 1256 1450 1568 1081 
Q 1881 713 2381 713 
Q 2750 713 3015 947 
Q 3281 1181 3397 1684 
z
" id="Arial-BoldMT-43" transform="scale(0.015625)"/>
     </defs>
     <use xlink:href="#Arial-BoldMT-43"/>
    </g>
   </g>
  </g>
  <g id="axes_4">
   <g id="patch_93">
    <path d="M 445.93096 542.037857 
L 860.99976 542.037857 
L 860.99976 380.584011 
L 445.93096 380.584011 
z
" style="fill:none;"/>
   </g>
   <g id="patch_94">
    <path clip-path="url(#p5487dfa2c8)" d="M 463.225493 542.037857 
L 497.81456 542.037857 
L 497.81456 388.343642 
L 463.225493 388.343642 
z
" style="fill:#2b83ba;"/>
   </g>
   <g id="patch_95">
    <path clip-path="url(#p5487dfa2c8)" d="M 532.403627 542.037857 
L 566.992693 542.037857 
L 566.992693 542.037857 
L 532.403627 542.037857 
z
" style="fill:#2b83ba;"/>
   </g>
   <g id="patch_96">
    <path clip-path="url(#p5487dfa2c8)" d="M 601.58176 542.037857 
L 636.170827 542.037857 
L 636.170827 541.828794 
L 601.58176 541.828794 
z
" style="fill:#2b83ba;"/>
   </g>
   <g id="patch_97">
    <path clip-path="url(#p5487dfa2c8)" d="M 670.759893 542.037857 
L 705.34896 542.037857 
L 705.34896 541.139956 
L 670.759893 541.139956 
z
" style="fill:#2b83ba;"/>
   </g>
   <g id="patch_98">
    <path clip-path="url(#p5487dfa2c8)" d="M 739.938027 542.037857 
L 774.527093 542.037857 
L 774.527093 538.777621 
L 739.938027 538.777621 
z
" style="fill:#2b83ba;"/>
   </g>
   <g id="patch_99">
    <path clip-path="url(#p5487dfa2c8)" d="M 809.11616 542.037857 
L 843.705227 542.037857 
L 843.705227 542.037857 
L 809.11616 542.037857 
z
" style="fill:#2b83ba;"/>
   </g>
   <g id="patch_100">
    <path clip-path="url(#p5487dfa2c8)" d="M 463.225493 388.343642 
L 497.81456 388.343642 
L 497.81456 388.272289 
L 463.225493 388.272289 
z
" style="fill:#abdda4;"/>
   </g>
   <g id="patch_101">
    <path clip-path="url(#p5487dfa2c8)" d="M 532.403627 542.037857 
L 566.992693 542.037857 
L 566.992693 539.785316 
L 532.403627 539.785316 
z
" style="fill:#abdda4;"/>
   </g>
   <g id="patch_102">
    <path clip-path="url(#p5487dfa2c8)" d="M 601.58176 541.828794 
L 636.170827 541.828794 
L 636.170827 390.258384 
L 601.58176 390.258384 
z
" style="fill:#abdda4;"/>
   </g>
   <g id="patch_103">
    <path clip-path="url(#p5487dfa2c8)" d="M 670.759893 541.139956 
L 705.34896 541.139956 
L 705.34896 495.571474 
L 670.759893 495.571474 
z
" style="fill:#abdda4;"/>
   </g>
   <g id="patch_104">
    <path clip-path="url(#p5487dfa2c8)" d="M 739.938027 538.777621 
L 774.527093 538.777621 
L 774.527093 459.463021 
L 739.938027 459.463021 
z
" style="fill:#abdda4;"/>
   </g>
   <g id="patch_105">
    <path clip-path="url(#p5487dfa2c8)" d="M 809.11616 542.037857 
L 843.705227 542.037857 
L 843.705227 540.610497 
L 809.11616 540.610497 
z
" style="fill:#abdda4;"/>
   </g>
   <g id="patch_106">
    <path clip-path="url(#p5487dfa2c8)" d="M 463.225493 542.037857 
L 497.81456 542.037857 
L 497.81456 542.037857 
L 463.225493 542.037857 
z
" style="fill:#fdae61;"/>
   </g>
   <g id="patch_107">
    <path clip-path="url(#p5487dfa2c8)" d="M 532.403627 539.785316 
L 566.992693 539.785316 
L 566.992693 414.235789 
L 532.403627 414.235789 
z
" style="fill:#fdae61;"/>
   </g>
   <g id="patch_108">
    <path clip-path="url(#p5487dfa2c8)" d="M 601.58176 390.258384 
L 636.170827 390.258384 
L 636.170827 388.481352 
L 601.58176 388.481352 
z
" style="fill:#fdae61;"/>
   </g>
   <g id="patch_109">
    <path clip-path="url(#p5487dfa2c8)" d="M 670.759893 495.571474 
L 705.34896 495.571474 
L 705.34896 442.819783 
L 670.759893 442.819783 
z
" style="fill:#fdae61;"/>
   </g>
   <g id="patch_110">
    <path clip-path="url(#p5487dfa2c8)" d="M 739.938027 459.463021 
L 774.527093 459.463021 
L 774.527093 394.846208 
L 739.938027 394.846208 
z
" style="fill:#fdae61;"/>
   </g>
   <g id="patch_111">
    <path clip-path="url(#p5487dfa2c8)" d="M 809.11616 540.610497 
L 843.705227 540.610497 
L 843.705227 493.075094 
L 809.11616 493.075094 
z
" style="fill:#fdae61;"/>
   </g>
   <g id="patch_112">
    <path clip-path="url(#p5487dfa2c8)" d="M 463.225493 542.037857 
L 497.81456 542.037857 
L 497.81456 542.037857 
L 463.225493 542.037857 
z
" style="fill:#d7191c;"/>
   </g>
   <g id="patch_113">
    <path clip-path="url(#p5487dfa2c8)" d="M 532.403627 414.235789 
L 566.992693 414.235789 
L 566.992693 388.272289 
L 532.403627 388.272289 
z
" style="fill:#d7191c;"/>
   </g>
   <g id="patch_114">
    <path clip-path="url(#p5487dfa2c8)" d="M 601.58176 388.481352 
L 636.170827 388.481352 
L 636.170827 388.272289 
L 601.58176 388.272289 
z
" style="fill:#d7191c;"/>
   </g>
   <g id="patch_115">
    <path clip-path="url(#p5487dfa2c8)" d="M 670.759893 442.819783 
L 705.34896 442.819783 
L 705.34896 388.272289 
L 670.759893 388.272289 
z
" style="fill:#d7191c;"/>
   </g>
   <g id="patch_116">
    <path clip-path="url(#p5487dfa2c8)" d="M 739.938027 394.846208 
L 774.527093 394.846208 
L 774.527093 388.272289 
L 739.938027 388.272289 
z
" style="fill:#d7191c;"/>
   </g>
   <g id="patch_117">
    <path clip-path="url(#p5487dfa2c8)" d="M 809.11616 493.075094 
L 843.705227 493.075094 
L 843.705227 388.272289 
L 809.11616 388.272289 
z
" style="fill:#d7191c;"/>
   </g>
   <g id="matplotlib.axis_7">
    <g id="xtick_15">
     <g id="line2d_30">
      <g>
       <use style="stroke:#000000;stroke-width:0.8;" x="480.520027" xlink:href="#m2459ececbe" y="542.037857"/>
      </g>
     </g>
     <g id="text_46">
      <!-- early -->
      <g transform="translate(460.343618 573.501984)rotate(-45)scale(0.12 -0.12)">
       <use xlink:href="#ArialMT-65"/>
       <use x="55.615234" xlink:href="#ArialMT-61"/>
       <use x="111.230469" xlink:href="#ArialMT-72"/>
       <use x="144.53125" xlink:href="#ArialMT-6c"/>
       <use x="166.748047" xlink:href="#ArialMT-79"/>
      </g>
     </g>
    </g>
    <g id="xtick_16">
     <g id="line2d_31">
      <g>
       <use style="stroke:#000000;stroke-width:0.8;" x="549.69816" xlink:href="#m2459ececbe" y="542.037857"/>
      </g>
     </g>
     <g id="text_47">
      <!-- effector-like exhausted -->
      <g transform="translate(462.79562 640.327552)rotate(-45)scale(0.12 -0.12)">
       <use xlink:href="#ArialMT-65"/>
       <use x="55.615234" xlink:href="#ArialMT-66"/>
       <use x="81.648438" xlink:href="#ArialMT-66"/>
       <use x="109.431641" xlink:href="#ArialMT-65"/>
       <use x="165.046875" xlink:href="#ArialMT-63"/>
       <use x="215.046875" xlink:href="#ArialMT-74"/>
       <use x="242.830078" xlink:href="#ArialMT-6f"/>
       <use x="298.445312" xlink:href="#ArialMT-72"/>
       <use x="331.746094" xlink:href="#ArialMT-2d"/>
       <use x="365.046875" xlink:href="#ArialMT-6c"/>
       <use x="387.263672" xlink:href="#ArialMT-69"/>
       <use x="409.480469" xlink:href="#ArialMT-6b"/>
       <use x="459.480469" xlink:href="#ArialMT-65"/>
       <use x="515.095703" xlink:href="#ArialMT-20"/>
       <use x="542.878906" xlink:href="#ArialMT-65"/>
       <use x="598.494141" xlink:href="#ArialMT-78"/>
       <use x="648.494141" xlink:href="#ArialMT-68"/>
       <use x="704.109375" xlink:href="#ArialMT-61"/>
       <use x="759.724609" xlink:href="#ArialMT-75"/>
       <use x="815.339844" xlink:href="#ArialMT-73"/>
       <use x="865.339844" xlink:href="#ArialMT-74"/>
       <use x="893.123047" xlink:href="#ArialMT-65"/>
       <use x="948.738281" xlink:href="#ArialMT-64"/>
      </g>
     </g>
    </g>
    <g id="xtick_17">
     <g id="line2d_32">
      <g>
       <use style="stroke:#000000;stroke-width:0.8;" x="618.876293" xlink:href="#m2459ececbe" y="542.037857"/>
      </g>
     </g>
     <g id="text_48">
      <!-- intermediate exhausted -->
      <g transform="translate(528.987995 643.31331)rotate(-45)scale(0.12 -0.12)">
       <use xlink:href="#ArialMT-69"/>
       <use x="22.216797" xlink:href="#ArialMT-6e"/>
       <use x="77.832031" xlink:href="#ArialMT-74"/>
       <use x="105.615234" xlink:href="#ArialMT-65"/>
       <use x="161.230469" xlink:href="#ArialMT-72"/>
       <use x="194.53125" xlink:href="#ArialMT-6d"/>
       <use x="277.832031" xlink:href="#ArialMT-65"/>
       <use x="333.447266" xlink:href="#ArialMT-64"/>
       <use x="389.0625" xlink:href="#ArialMT-69"/>
       <use x="411.279297" xlink:href="#ArialMT-61"/>
       <use x="466.894531" xlink:href="#ArialMT-74"/>
       <use x="494.677734" xlink:href="#ArialMT-65"/>
       <use x="550.292969" xlink:href="#ArialMT-20"/>
       <use x="578.076172" xlink:href="#ArialMT-65"/>
       <use x="633.691406" xlink:href="#ArialMT-78"/>
       <use x="683.691406" xlink:href="#ArialMT-68"/>
       <use x="739.306641" xlink:href="#ArialMT-61"/>
       <use x="794.921875" xlink:href="#ArialMT-75"/>
       <use x="850.537109" xlink:href="#ArialMT-73"/>
       <use x="900.537109" xlink:href="#ArialMT-74"/>
       <use x="928.320312" xlink:href="#ArialMT-65"/>
       <use x="983.935547" xlink:href="#ArialMT-64"/>
      </g>
     </g>
    </g>
    <g id="xtick_18">
     <g id="line2d_33">
      <g>
       <use style="stroke:#000000;stroke-width:0.8;" x="688.054427" xlink:href="#m2459ececbe" y="542.037857"/>
      </g>
     </g>
     <g id="text_49">
      <!-- memory-like exhausted -->
      <g transform="translate(598.558573 642.821429)rotate(-45)scale(0.12 -0.12)">
       <use xlink:href="#ArialMT-6d"/>
       <use x="83.300781" xlink:href="#ArialMT-65"/>
       <use x="138.916016" xlink:href="#ArialMT-6d"/>
       <use x="222.216797" xlink:href="#ArialMT-6f"/>
       <use x="277.832031" xlink:href="#ArialMT-72"/>
       <use x="311.132812" xlink:href="#ArialMT-79"/>
       <use x="361.132812" xlink:href="#ArialMT-2d"/>
       <use x="394.433594" xlink:href="#ArialMT-6c"/>
       <use x="416.650391" xlink:href="#ArialMT-69"/>
       <use x="438.867188" xlink:href="#ArialMT-6b"/>
       <use x="488.867188" xlink:href="#ArialMT-65"/>
       <use x="544.482422" xlink:href="#ArialMT-20"/>
       <use x="572.265625" xlink:href="#ArialMT-65"/>
       <use x="627.880859" xlink:href="#ArialMT-78"/>
       <use x="677.880859" xlink:href="#ArialMT-68"/>
       <use x="733.496094" xlink:href="#ArialMT-61"/>
       <use x="789.111328" xlink:href="#ArialMT-75"/>
       <use x="844.726562" xlink:href="#ArialMT-73"/>
       <use x="894.726562" xlink:href="#ArialMT-74"/>
       <use x="922.509766" xlink:href="#ArialMT-65"/>
       <use x="978.125" xlink:href="#ArialMT-64"/>
      </g>
     </g>
    </g>
    <g id="xtick_19">
     <g id="line2d_34">
      <g>
       <use style="stroke:#000000;stroke-width:0.8;" x="757.23256" xlink:href="#m2459ececbe" y="542.037857"/>
      </g>
     </g>
     <g id="text_50">
      <!-- proliferating -->
      <g transform="translate(711.11373 599.54782)rotate(-45)scale(0.12 -0.12)">
       <use xlink:href="#ArialMT-70"/>
       <use x="55.615234" xlink:href="#ArialMT-72"/>
       <use x="88.916016" xlink:href="#ArialMT-6f"/>
       <use x="144.53125" xlink:href="#ArialMT-6c"/>
       <use x="166.748047" xlink:href="#ArialMT-69"/>
       <use x="188.964844" xlink:href="#ArialMT-66"/>
       <use x="216.748047" xlink:href="#ArialMT-65"/>
       <use x="272.363281" xlink:href="#ArialMT-72"/>
       <use x="305.664062" xlink:href="#ArialMT-61"/>
       <use x="361.279297" xlink:href="#ArialMT-74"/>
       <use x="389.0625" xlink:href="#ArialMT-69"/>
       <use x="411.279297" xlink:href="#ArialMT-6e"/>
       <use x="466.894531" xlink:href="#ArialMT-67"/>
      </g>
     </g>
    </g>
    <g id="xtick_20">
     <g id="line2d_35">
      <g>
       <use style="stroke:#000000;stroke-width:0.8;" x="826.410693" xlink:href="#m2459ececbe" y="542.037857"/>
      </g>
     </g>
     <g id="text_51">
      <!-- terminally exhausted -->
      <g transform="translate(746.808147 632.928121)rotate(-45)scale(0.12 -0.12)">
       <use xlink:href="#ArialMT-74"/>
       <use x="27.783203" xlink:href="#ArialMT-65"/>
       <use x="83.398438" xlink:href="#ArialMT-72"/>
       <use x="116.699219" xlink:href="#ArialMT-6d"/>
       <use x="200" xlink:href="#ArialMT-69"/>
       <use x="222.216797" xlink:href="#ArialMT-6e"/>
       <use x="277.832031" xlink:href="#ArialMT-61"/>
       <use x="333.447266" xlink:href="#ArialMT-6c"/>
       <use x="355.664062" xlink:href="#ArialMT-6c"/>
       <use x="377.880859" xlink:href="#ArialMT-79"/>
       <use x="427.880859" xlink:href="#ArialMT-20"/>
       <use x="455.664062" xlink:href="#ArialMT-65"/>
       <use x="511.279297" xlink:href="#ArialMT-78"/>
       <use x="561.279297" xlink:href="#ArialMT-68"/>
       <use x="616.894531" xlink:href="#ArialMT-61"/>
       <use x="672.509766" xlink:href="#ArialMT-75"/>
       <use x="728.125" xlink:href="#ArialMT-73"/>
       <use x="778.125" xlink:href="#ArialMT-74"/>
       <use x="805.908203" xlink:href="#ArialMT-65"/>
       <use x="861.523438" xlink:href="#ArialMT-64"/>
      </g>
     </g>
    </g>
   </g>
   <g id="matplotlib.axis_8">
    <g id="ytick_16">
     <g id="line2d_36">
      <g>
       <use style="stroke:#000000;stroke-width:0.8;" x="445.93096" xlink:href="#m705b5f045e" y="542.037857"/>
      </g>
     </g>
     <g id="text_52">
      <!-- 0.0 -->
      <g transform="translate(423.58536 545.988969)scale(0.1104 -0.1104)">
       <use xlink:href="#ArialMT-30"/>
       <use x="55.615234" xlink:href="#ArialMT-2e"/>
       <use x="83.398438" xlink:href="#ArialMT-30"/>
      </g>
     </g>
    </g>
    <g id="ytick_17">
     <g id="line2d_37">
      <g>
       <use style="stroke:#000000;stroke-width:0.8;" x="445.93096" xlink:href="#m705b5f045e" y="511.284743"/>
      </g>
     </g>
     <g id="text_53">
      <!-- 0.2 -->
      <g transform="translate(423.58536 515.235856)scale(0.1104 -0.1104)">
       <use xlink:href="#ArialMT-30"/>
       <use x="55.615234" xlink:href="#ArialMT-2e"/>
       <use x="83.398438" xlink:href="#ArialMT-32"/>
      </g>
     </g>
    </g>
    <g id="ytick_18">
     <g id="line2d_38">
      <g>
       <use style="stroke:#000000;stroke-width:0.8;" x="445.93096" xlink:href="#m705b5f045e" y="480.53163"/>
      </g>
     </g>
     <g id="text_54">
      <!-- 0.4 -->
      <g transform="translate(423.58536 484.482742)scale(0.1104 -0.1104)">
       <use xlink:href="#ArialMT-30"/>
       <use x="55.615234" xlink:href="#ArialMT-2e"/>
       <use x="83.398438" xlink:href="#ArialMT-34"/>
      </g>
     </g>
    </g>
    <g id="ytick_19">
     <g id="line2d_39">
      <g>
       <use style="stroke:#000000;stroke-width:0.8;" x="445.93096" xlink:href="#m705b5f045e" y="449.778516"/>
      </g>
     </g>
     <g id="text_55">
      <!-- 0.6 -->
      <g transform="translate(423.58536 453.729629)scale(0.1104 -0.1104)">
       <use xlink:href="#ArialMT-30"/>
       <use x="55.615234" xlink:href="#ArialMT-2e"/>
       <use x="83.398438" xlink:href="#ArialMT-36"/>
      </g>
     </g>
    </g>
    <g id="ytick_20">
     <g id="line2d_40">
      <g>
       <use style="stroke:#000000;stroke-width:0.8;" x="445.93096" xlink:href="#m705b5f045e" y="419.025403"/>
      </g>
     </g>
     <g id="text_56">
      <!-- 0.8 -->
      <g transform="translate(423.58536 422.976515)scale(0.1104 -0.1104)">
       <use xlink:href="#ArialMT-30"/>
       <use x="55.615234" xlink:href="#ArialMT-2e"/>
       <use x="83.398438" xlink:href="#ArialMT-38"/>
      </g>
     </g>
    </g>
    <g id="ytick_21">
     <g id="line2d_41">
      <g>
       <use style="stroke:#000000;stroke-width:0.8;" x="445.93096" xlink:href="#m705b5f045e" y="388.272289"/>
      </g>
     </g>
     <g id="text_57">
      <!-- 1.0 -->
      <g transform="translate(423.58536 392.223402)scale(0.1104 -0.1104)">
       <use xlink:href="#ArialMT-31"/>
       <use x="55.615234" xlink:href="#ArialMT-2e"/>
       <use x="83.398438" xlink:href="#ArialMT-30"/>
      </g>
     </g>
    </g>
    <g id="text_58">
     <!-- fraction of cells -->
     <g transform="translate(417.20036 501.325309)rotate(-90)scale(0.12 -0.12)">
      <use xlink:href="#ArialMT-66"/>
      <use x="27.783203" xlink:href="#ArialMT-72"/>
      <use x="61.083984" xlink:href="#ArialMT-61"/>
      <use x="116.699219" xlink:href="#ArialMT-63"/>
      <use x="166.699219" xlink:href="#ArialMT-74"/>
      <use x="194.482422" xlink:href="#ArialMT-69"/>
      <use x="216.699219" xlink:href="#ArialMT-6f"/>
      <use x="272.314453" xlink:href="#ArialMT-6e"/>
      <use x="327.929688" xlink:href="#ArialMT-20"/>
      <use x="355.712891" xlink:href="#ArialMT-6f"/>
      <use x="411.328125" xlink:href="#ArialMT-66"/>
      <use x="439.111328" xlink:href="#ArialMT-20"/>
      <use x="466.894531" xlink:href="#ArialMT-63"/>
      <use x="516.894531" xlink:href="#ArialMT-65"/>
      <use x="572.509766" xlink:href="#ArialMT-6c"/>
      <use x="594.726562" xlink:href="#ArialMT-6c"/>
      <use x="616.943359" xlink:href="#ArialMT-73"/>
     </g>
    </g>
   </g>
   <g id="patch_118">
    <path d="M 445.93096 542.037857 
L 445.93096 380.584011 
" style="fill:none;stroke:#000000;stroke-linecap:square;stroke-linejoin:miter;stroke-width:0.8;"/>
   </g>
   <g id="patch_119">
    <path d="M 445.93096 542.037857 
L 860.99976 542.037857 
" style="fill:none;stroke:#000000;stroke-linecap:square;stroke-linejoin:miter;stroke-width:0.8;"/>
   </g>
   <g id="text_59">
    <!-- D -->
    <g transform="translate(391.972016 361.281127)scale(0.16 -0.16)">
     <defs>
      <path d="M 463 4581 
L 2153 4581 
Q 2725 4581 3025 4494 
Q 3428 4375 3715 4072 
Q 4003 3769 4153 3330 
Q 4303 2891 4303 2247 
Q 4303 1681 4163 1272 
Q 3991 772 3672 463 
Q 3431 228 3022 97 
Q 2716 0 2203 0 
L 463 0 
L 463 4581 
z
M 1388 3806 
L 1388 772 
L 2078 772 
Q 2466 772 2638 816 
Q 2863 872 3011 1006 
Q 3159 1141 3253 1448 
Q 3347 1756 3347 2288 
Q 3347 2819 3253 3103 
Q 3159 3388 2990 3547 
Q 2822 3706 2563 3763 
Q 2369 3806 1803 3806 
L 1388 3806 
z
" id="Arial-BoldMT-44" transform="scale(0.015625)"/>
     </defs>
     <use xlink:href="#Arial-BoldMT-44"/>
    </g>
   </g>
  </g>
 </g>
 <defs>
  <clipPath id="pa3cecdf38b">
   <rect height="161.453846" width="276.712533" x="58.181671" y="28.758614"/>
  </clipPath>
  <clipPath id="pd19f2e047e">
   <rect height="161.453846" width="415.0688" x="445.93096" y="28.758614"/>
  </clipPath>
  <clipPath id="p2552c6cd4e">
   <rect height="161.453846" width="276.712533" x="58.181671" y="380.584011"/>
  </clipPath>
  <clipPath id="p5487dfa2c8">
   <rect height="161.453846" width="415.0688" x="445.93096" y="380.584011"/>
  </clipPath>
 </defs>
</svg>
